<?xml version="1.0" encoding="utf-8"?>
<!-- Generator: Adobe Illustrator 21.0.2, SVG Export Plug-In . SVG Version: 6.00 Build 0)  -->
<svg version="1.1" id="Layer_1" xmlns="http://www.w3.org/2000/svg" xmlns:xlink="http://www.w3.org/1999/xlink" x="0px" y="0px"
	 viewBox="0 0 140 50" style="enable-background:new 0 0 140 50;" xml:space="preserve">
<style type="text/css">
	.st0{fill-rule:evenodd;clip-rule:evenodd;fill:#A51440;}
	.st1{fill:#221E20;}
</style>
<g>
	<g id="XMLID_200_">
		<path id="XMLID_201_" class="st0" d="M39.2,6c-4.2,2.5-7.3,6.6-8.5,9.4c-0.1,0.3-0.2,0.8,0,0.8C52,9.2,49.5,42.2,29.4,37.9
			c-0.5,5.3-1.2,7.7-2.7,11c-0.1,0.2-0.4,0.4-0.6,0.4c-0.2-0.1-0.3-0.2-0.3-0.5c0.6-3.5,1.2-7.1-1.5-11.1c-2-2.9-9.6-1.9-12.2-4.8
			C5,24.6,12.7,11.1,23.8,17.1C22.7,13.1,21.7,7,23.9,1.2c0-0.1,0.1-0.3,0.2-0.4c0.3-0.3,0.9,0,1.3,0.1c0.9,0.3,1.4,0.8,2.3,1.1
			c0.5,0.6-0.4,1.1-0.3,2c0.7-0.9,1.1-2.1,1.8-3.1c1.5,0.4,2.5,1.3,3.3,2.3c-0.6,1.6-1.5,2.9-2,4.6c1.3-1.4,4-4,6.6-5.1
			C38.1,3.3,39.2,5.6,39.2,6z"/>
	</g>
	<path id="XMLID_196_" class="st1" d="M53.7,33c0-0.3,0-2.3-0.1-2.5c0-0.3,0.1-3,0-3.4c-0.1-0.3,0-1,0-1.3c0-0.6-0.1-3.8-0.1-4.1
		c0-0.8-0.1-3.3-0.1-3.7c0-0.4,0-0.8,0-1.2c0-0.3-0.1-0.9,0.2-1.1c0.1-0.1,0.2-0.2,0.4-0.3c0.5-0.2,1.2-0.2,1.8-0.2
		c0.8,0,1.6,0.2,2.2,0.6c1.2,0.8,1.4,1.4,1.7,1.8c0.5,0.8,0.7,2.4,0.7,3.3c-0.1,1.1-0.3,1.6-0.8,2.7c-0.2,0.5-0.6,1.2-1.1,1.6
		c-0.1,0.1-0.3,0.3-0.4,0.3c0.2,0.1,0.3,0.2,0.4,0.2c0.6,0.5,0.9,0.8,1.3,1.3c0.6,0.9,0.9,1.5,1.2,2.7c0.2,0.9,0.4,2,0.4,3
		c0,1-0.1,2.3-0.7,3.1c-0.3,0.5-0.5,0.8-1,1.2c-0.3,0.2-0.6,0.5-0.9,0.7c-0.4,0.2-0.6,0.3-1.1,0.5c-0.3,0.1-0.6,0.2-1.5,0.2
		c-0.4,0-1.6,0-1.9,0c-0.1,0-0.7,0-0.7-0.5c0-0.1,0-1.3,0-1.4C53.6,36.3,53.7,33.2,53.7,33z M55.5,36.3c0.1,0,1.1,0,1.2,0
		c0.7,0,1.6-0.7,1.8-1c0.3-0.4,0.8-0.9,0.7-2.1c0-0.4,0-1,0-1.3c-0.1-0.9-0.1-1.6-0.5-2.5c-0.2-0.5-0.4-1-1-1.6c0,0-0.4-0.4-0.6-0.7
		c-0.1-0.1-0.2-0.2-0.3-0.2c-0.1,0-0.2-0.1-0.5-0.1c-0.3,0-0.8,0-0.9,0.1c0,0.3,0,0.6,0,0.8c0.1,0.9-0.1,1.8,0,2.7
		c0.1,0.9,0,1.6,0,2.5C55.5,33.9,55.4,35.1,55.5,36.3z M55.5,25c0.2-0.1,0.6-0.1,0.7-0.2c1.2-0.8,1.4-1.6,1.7-2.3
		c0.2-0.5,0.4-0.9,0.4-1.8c0-0.7-0.1-1.6-0.4-2.2c-0.2-0.4-1-1.1-1.4-1.1c-0.4-0.2-1.1,0-1.1,0.5c0,0.5,0,1.3,0,1.8
		c0,0.5,0.1,1.2,0.1,1.8c0,0.8,0.1,1.8,0,2.9C55.5,24.4,55.5,24.7,55.5,25z"/>
	<path id="XMLID_191_" class="st1" d="M65.6,36.3c0.1,0,0.4,0.1,0.5,0c0.4,0,1,0.1,2.2,0c0.2,0,1.3-0.1,1.5,0
		c0.2,0.2,0.1,0.2,0.1,0.8c0,0.1,0,0.7,0,0.8c-0.1,0.1,0,0.4-0.2,0.4c-0.2,0-0.8,0-1,0c-0.7,0-1.7,0-2.1,0c-0.2,0-0.9,0-1.1,0
		c0,0-1.7,0-1.7-0.1c-0.1-0.2,0-0.2-0.1-0.5c-0.1-0.2-0.1-2,0-2.2c0-0.2,0-3.5-0.1-4.3c0-0.1,0-0.1,0-0.2c0,0,0-0.1,0-0.1
		c0-0.1,0-0.1,0-0.2c0.1-0.7,0-2.4,0-2.6c0-0.4,0.1-2.5,0.1-2.9c0-0.5,0-2.9,0-3.3c0-0.6-0.1-1.4,0-2.3c0-0.2-0.1-2-0.1-2.3
		c0-0.3-0.1-0.9,0-1.3c0-0.3-0.1-0.7,0.1-0.8c0.2-0.2,0.5-0.2,1-0.1c0.1,0,1.4,0,1.5,0c0.7,0,1.8,0,2.1,0c0.5,0,1.2,0,1.7,0
		c0.2,0,0.2,0.5,0.2,0.8c0,0.1,0,1-0.1,1c-0.1,0.1-0.4,0-0.6,0c-0.3,0-1.1,0-1.4,0c-0.6-0.1-2.1,0-2.2,0c-0.3,0-0.4,0-0.3,0.3
		c0,0.3,0,0.5,0,0.8c0,0.2,0,0.6,0,0.8c0,0.4,0,1.2,0,1.6c0,0.5,0.1,2,0.1,2.5c0,0.3,0,0.9,0,1.2c0,0.1,0,0.1,0,0.2
		c0,0.3,0,0.3,0.3,0.3c0.3,0,2.2,0.1,2.6,0c0.3,0,0.5,0,0.6,0.1c0.1,0.1,0,0.5,0.1,1.1c0,0.1,0,0.6-0.1,0.7c-0.1,0-0.9,0-1.2,0
		c-0.4,0-0.9,0-1.3,0c0,0-0.6,0.1-0.9,0.1c-0.2,0-0.2,0.1-0.2,0.2c0,0.4,0,1.1,0,1.6c0,0.2,0,4.5,0,4.9c0,0.7,0,1.4,0,2.1
		C65.5,35.8,65.5,36.1,65.6,36.3z"/>
	<path id="XMLID_1_" class="st1" d="M73.9,36.3c0.1,0,0.4,0.1,0.5,0c0.4,0,1,0.1,2.2,0c0.2,0,1.3-0.1,1.5,0c0.2,0.2,0.1,0.2,0.1,0.8
		c0,0.1,0,0.7,0,0.8c-0.1,0.1,0,0.4-0.2,0.4c-0.2,0-0.8,0-1,0c-0.7,0-1.7,0-2.1,0c-0.2,0-0.9,0-1.1,0c0,0-1.7,0-1.7-0.1
		c-0.1-0.2,0-0.2-0.1-0.5c-0.1-0.2-0.1-2,0-2.2c0-0.2,0-3.5-0.1-4.3c0-0.1,0-0.1,0-0.2c0,0,0-0.1,0-0.1c0-0.1,0-0.1,0-0.2
		c0.1-0.7,0-2.4,0-2.6c0-0.4,0.1-2.5,0.1-2.9c0-0.5,0-2.9,0-3.3c0-0.6-0.1-1.4,0-2.3c0-0.2-0.1-2-0.1-2.3c0-0.3-0.1-0.9,0-1.3
		c0-0.3-0.1-0.7,0.1-0.8c0.2-0.2,0.5-0.2,1-0.1c0.1,0,1.4,0,1.5,0c0.7,0,1.8,0,2.1,0c0.5,0,1.2,0,1.7,0c0.2,0,0.2,0.5,0.2,0.8
		c0,0.1,0,1-0.1,1c-0.1,0.1-0.4,0-0.6,0c-0.3,0-1.1,0-1.4,0c-0.6-0.1-2.1,0-2.2,0c-0.3,0-0.4,0-0.3,0.3c0,0.3,0,0.5,0,0.8
		c0,0.2,0,0.6,0,0.8c0,0.4,0,1.2,0,1.6c0,0.5,0.1,2,0.1,2.5c0,0.3,0,0.9,0,1.2c0,0.1,0,0.1,0,0.2c0,0.3,0,0.3,0.3,0.3
		c0.3,0,2.2,0.1,2.6,0c0.3,0,0.5,0,0.6,0.1c0.1,0.1,0,0.5,0.1,1.1c0,0.1,0,0.6-0.1,0.7c-0.1,0-0.9,0-1.2,0c-0.4,0-0.9,0-1.3,0
		c0,0-0.6,0.1-0.9,0.1c-0.2,0-0.2,0.1-0.2,0.2c0,0.4,0,1.1,0,1.6c0,0.2,0,4.5,0,4.9c0,0.7,0,1.4,0,2.1
		C73.9,35.8,73.8,36.1,73.9,36.3z"/>
	<g id="XMLID_8_">
		<path id="XMLID_9_" class="st1" d="M103.7,15.2c0.1,0,0.3,0,0.5,0c0.6,0,1.1,0.2,1.9,0.6c0.6,0.4,1.1,0.9,1.3,1.2
			c0.2,0.3,0.4,0.6,0.6,1c0.2,0.5,0.3,0.8,0.5,1.2c0,0,0.1,0.4,0.1,0.4c0,0,0,0.2,0.1,0.2c0.1,0.6,0.4,2,0.4,2.6
			c0.1,1.2,0.1,2.3,0.2,2.9c0,0.2,0,0.4,0,0.5c0,0.3,0,2.1,0,2.4l0,0.2c0,0.5,0,1.6-0.1,2.4c0,0.3-0.2,1.8-0.3,2l0,0.1
			c-0.1,0.4-0.3,1.5-0.8,2.5c-0.4,0.9-1,1.5-1.9,2.2c-0.6,0.4-1.7,0.7-2.3,0.7c-0.5,0-0.9-0.1-1.3-0.2c-0.7-0.2-1.2-0.5-1.7-0.9
			c-0.3-0.2-0.8-0.8-1-1.2c-0.3-0.5-0.8-1.8-1-2.4c0-0.1,0-0.2-0.1-0.3c-0.1-0.2-0.1-0.4-0.1-0.5c-0.1-0.5-0.3-2-0.3-2.4
			c0-0.4-0.1-2.6-0.1-2.9c0-0.4,0-0.9,0-1.2c0-0.3,0-0.7,0-1.1c0-0.6,0-1.4,0.1-2c0-0.1,0-0.3,0.1-0.6c0.1-0.6,0.1-1.3,0.2-1.7
			c0.1-0.8,0.3-1.5,0.4-2c0.2-0.8,0.6-1.5,1.2-2.2c1-1.1,1.9-1.3,2.4-1.4c0.2,0,0.6-0.1,0.8-0.1C103.4,15.2,103.5,15.2,103.7,15.2z
			 M105,36c0.8-0.4,1-0.8,1.3-1.4c0.4-0.8,0.6-1.6,0.7-2l0-0.1c0-0.2,0.2-1.4,0.2-1.7c0-0.8,0.1-1.9,0.1-2.4l0-0.2
			c0-0.3,0-1.9,0-2.1c0-0.1,0-0.3,0-0.7c0-0.6,0-1.6-0.1-2.7c-0.1-0.9-0.3-2.1-0.4-2.3c0,0,0-0.1,0-0.2c-0.3-1-0.7-1.7-0.9-2.1
			c-0.1-0.2-0.4-0.5-0.7-0.7c-0.4-0.3-0.8-0.3-0.9-0.3c-0.2,0-0.3,0-0.5,0c-0.2,0-0.5,0-0.6,0c-0.4,0.1-0.9,0.2-1.4,0.8
			c-0.4,0.4-0.6,0.9-0.8,1.4c0,0.2-0.2,0.7-0.4,1.8c0,0.3-0.1,1-0.2,1.5c0,0.2,0,0.4-0.1,0.6c-0.1,0.5-0.1,1.3-0.1,1.9
			c0,0.5,0,0.9,0,1.2c0,0.3,0,0.8,0,1.1c0,0.5,0,2.3,0.1,2.7c0,0.3,0.2,1.7,0.3,2.2c0,0.1,0.1,0.3,0.1,0.5c0,0.2,0.1,0.3,0.1,0.4
			c0.1,0.4,0.5,1.5,0.8,1.8c0.1,0.2,0.4,0.6,0.5,0.6c0.4,0.3,0.7,0.4,1,0.5c0.3,0.1,0.6,0.1,0.9,0.1c0,0,0,0,0,0
			C104.1,36.3,104.6,36.2,105,36z"/>
	</g>
	<g id="XMLID_2_">
		<path id="XMLID_3_" class="st1" d="M116.3,15.2c0.1,0,0.3,0,0.5,0c0.6,0,1.1,0.2,1.9,0.6c0.6,0.4,1.1,0.9,1.3,1.2
			c0.2,0.3,0.4,0.6,0.6,1c0.2,0.5,0.3,0.8,0.5,1.2c0,0,0.1,0.4,0.1,0.4c0,0,0,0.2,0.1,0.2c0.1,0.6,0.4,2,0.4,2.6
			c0.1,1.2,0.1,2.3,0.2,2.9c0,0.2,0,0.4,0,0.5c0,0.3,0,2.1,0,2.4l0,0.2c0,0.5,0,1.6-0.1,2.4c0,0.3-0.2,1.8-0.3,2l0,0.1
			c-0.1,0.4-0.3,1.5-0.8,2.5c-0.4,0.9-1,1.5-1.9,2.2c-0.6,0.4-1.7,0.7-2.3,0.7c-0.5,0-0.9-0.1-1.3-0.2c-0.7-0.2-1.2-0.5-1.7-0.9
			c-0.3-0.2-0.8-0.8-1-1.2c-0.3-0.5-0.8-1.8-1-2.4c0-0.1,0-0.2-0.1-0.3c-0.1-0.2-0.1-0.4-0.1-0.5c-0.1-0.5-0.3-2-0.3-2.4
			c0-0.4-0.1-2.6-0.1-2.9c0-0.4,0-0.9,0-1.2c0-0.3,0-0.7,0-1.1c0-0.6,0-1.4,0.1-2c0-0.1,0-0.3,0.1-0.6c0.1-0.6,0.1-1.3,0.2-1.7
			c0.1-0.8,0.3-1.5,0.4-2c0.2-0.8,0.6-1.5,1.2-2.2c1-1.1,1.9-1.3,2.4-1.4c0.2,0,0.6-0.1,0.8-0.1C116.1,15.2,116.2,15.2,116.3,15.2z
			 M117.6,36c0.8-0.4,1-0.8,1.3-1.4c0.4-0.8,0.6-1.6,0.7-2l0-0.1c0-0.2,0.2-1.4,0.2-1.7c0-0.8,0.1-1.9,0.1-2.4l0-0.2
			c0-0.3,0-1.9,0-2.1c0-0.1,0-0.3,0-0.7c0-0.6,0-1.6-0.1-2.7c-0.1-0.9-0.3-2.1-0.4-2.3c0,0,0-0.1,0-0.2c-0.3-1-0.7-1.7-0.9-2.1
			c-0.1-0.2-0.4-0.5-0.7-0.7c-0.4-0.3-0.8-0.3-0.9-0.3c-0.2,0-0.3,0-0.5,0c-0.2,0-0.5,0-0.6,0c-0.4,0.1-0.9,0.2-1.4,0.8
			c-0.4,0.4-0.6,0.9-0.8,1.4c0,0.2-0.2,0.7-0.4,1.8c0,0.3-0.1,1-0.2,1.5c0,0.2,0,0.4-0.1,0.6c-0.1,0.5-0.1,1.3-0.1,1.9
			c0,0.5,0,0.9,0,1.2c0,0.3,0,0.8,0,1.1c0,0.5,0,2.3,0.1,2.7c0,0.3,0.2,1.7,0.3,2.2c0,0.1,0.1,0.3,0.1,0.5c0,0.2,0.1,0.3,0.1,0.4
			c0.1,0.4,0.5,1.5,0.8,1.8c0.1,0.2,0.4,0.6,0.5,0.6c0.4,0.3,0.7,0.4,1,0.5c0.3,0.1,0.6,0.1,0.9,0.1c0,0,0,0,0,0
			C116.7,36.3,117.2,36.2,117.6,36z"/>
	</g>
	<path id="XMLID_179_" class="st1" d="M92,26.6c-0.2,0.1-0.2,0.1-0.2,0.1c0,0.4,0,0.8-0.1,1.2c0,0.8-0.1,1.3,0,2.1
		c0,0.7-0.1,1.1,0,2.3c0,0.4,0.1,2.4,0.1,2.9c0,0.3,0,0.8,0,1.2c0,0.4,0,0.8,0,1c0,0.3,0.1,0.5,0,0.8c0,0.1-0.2,0.1-0.3,0.1
		c-0.1,0-1.4,0.1-1.5,0c-0.2-0.1-0.1-1,0-1.3c0-0.3,0-1,0-2c0-0.1,0-0.5,0-1.1c0-0.4,0-1,0-1.6c0-0.4,0-0.7,0-1.6c0-0.2,0-1.7,0-1.8
		c0-0.6,0-1.3,0.1-1.9c0-0.3,0-0.7,0-1c0-0.1,0-0.2,0-0.2c0-0.6,0-1.1,0-1.7c0-0.1-0.1-0.9,0-1.2c0-0.2,0-1.1,0-1.2
		c0.1-0.4,0-0.3,0-0.8c0-0.8-0.1-2.4-0.1-2.5c0.1-0.5,0-1,0.1-1.6c0.2-0.8,0.6-1.3,1.3-1.6c0.3-0.1,1-0.1,1.5,0.1
		c0.9,0.2,1.4,0.6,1.7,0.8c0.3,0.2,0.5,0.5,0.7,0.8c0.3,0.3,0.4,0.7,0.6,1.1c0.1,0.2,0.1,0.5,0.2,0.7c0.2,0.7,0.3,1.3,0.3,1.6
		c0,1-0.1,1.6-0.3,1.9c-0.2,0.8-0.4,1.2-0.8,1.8c0,0.1-0.2,0.3-0.2,0.4c-0.3,0.3-0.3,0.5-0.6,0.8c-0.2,0.2-0.7,0.7-0.7,0.8
		c0.2,0.8,0.6,1.3,0.7,2.1c0.2,0.9,0.5,1.7,0.8,2.6c0.2,0.7,0.4,1.2,0.7,2.2c0.2,0.5,0.3,1.3,0.5,2c0.2,0.8,0.3,1.2,0.6,2
		c0.1,0.3,0.3,0.8,0.2,1.1c0,0.3-0.6,0.3-1,0.3c-0.1,0-0.6,0-0.8,0c-0.2-0.3-0.3-0.7-0.6-1.9c0,0-0.7-2.9-1-3.8
		c-0.2-0.8-0.7-2.6-0.9-3.3c-0.2-0.9-0.6-1.8-0.8-2.2C92.1,26.9,92.1,26.8,92,26.6z M91.8,23.5c0,0.3,0,0.9,0,1.2
		c0,0.2,0.1,0.2,0.2,0.2c0.3-0.1,0.5-0.3,0.7-0.5c0.2-0.4,0.9-1.1,1.1-1.7c0.2-0.5,0.4-0.4,0.6-1.6c0-0.2,0.1-0.8-0.1-1.6
		c-0.1-0.5-0.2-0.7-0.5-1.1c-0.2-0.3-0.5-0.5-0.6-0.6c-0.2-0.2-0.5-0.2-0.8-0.3c-0.1,0-0.5,0-0.6,0.1c-0.1,0.2,0,0.6,0,0.7
		c0,0.4,0,0.9,0,1.2c0.1,1.1,0,2,0,3.1C91.8,22.9,91.8,23.2,91.8,23.5z"/>
	<path id="XMLID_194_" class="st1" d="M85,20.7c0,1-0.2,9.6-0.1,9.6c0,0.1,0,1.3,0,1.4c0,0.2,0,1,0,2.3c0,0.5,0,2.3,0,2.7
		c0,0.1,0,0.5,0,1c0,0.2,0,0.3,0,0.4c0,0.1,0,0.1,0,0.1c0,0-0.2,0-0.4,0c-0.2,0-0.4,0-0.6,0c-0.7,0-0.7,0-0.7-0.1c0-0.2,0-0.9,0-1.2
		c0-0.5,0-1.4,0-1.9c0-0.5,0-1.3,0-1.9c0,0,0.1-1.5,0.1-2.2c0-0.2,0-0.3,0-0.5c0-0.7,0.1-1.5,0.1-2.2c0-0.6-0.1-1.1-0.1-1.7
		c0-0.6,0-1.1,0.1-1.7c0-0.2,0-0.4,0-0.6c0-0.6,0-1.4-0.1-2.1c0-0.2,0-0.5,0-0.7c0-0.6,0-1.2,0-1.8c0-0.1-0.1-0.6-0.1-0.9
		c0-0.7,0-1.5,0-1.6c-0.1-0.1-0.6,0-0.9,0c-0.5,0-0.7-0.1-1.4,0c-0.5,0-0.9,0.1-1.1,0c0-0.1,0-0.5,0-1c0-0.4,0-0.9,0.1-0.9
		c0.2-0.1,0.6-0.1,0.9-0.1c0.8,0,1.3,0,2,0c0.8,0,1.4,0,2.2,0c0.8,0,1.4,0,2,0c0.2,0,0.8,0,1.5,0c0.5,0,0.2,0.2,0.3,0.6
		c0,0.2,0.1,1.1-0.1,1.2c-0.1,0.1-0.5,0.1-0.9,0.1c-0.6,0-0.8,0-1.7,0c-0.4,0-0.7,0-0.9,0c0,0.3-0.1,1.2-0.1,2
		C85,19.2,85,20.7,85,20.7z"/>
	<path id="XMLID_6_" class="st1" d="M127,20.7c0,1-0.2,9.6-0.1,9.6c0,0.1,0,1.3,0,1.4c0,0.2,0,1,0,2.3c0,0.5,0,2.3,0,2.7
		c0,0.1,0,0.5,0,1c0,0.2,0,0.3,0,0.4c0,0.1,0,0.1,0,0.1c0,0-0.2,0-0.4,0c-0.2,0-0.4,0-0.6,0c-0.7,0-0.7,0-0.7-0.1c0-0.2,0-0.9,0-1.2
		c0-0.5,0-1.4,0-1.9c0-0.5,0-1.3,0-1.9c0,0,0.1-1.5,0.1-2.2c0-0.2,0-0.3,0-0.5c0-0.7,0.1-1.5,0.1-2.2c0-0.6-0.1-1.1-0.1-1.7
		c0-0.6,0-1.1,0.1-1.7c0-0.2,0-0.4,0-0.6c0-0.6,0-1.4-0.1-2.1c0-0.2,0-0.5,0-0.7c0-0.6,0-1.2,0-1.8c0-0.1-0.1-0.6-0.1-0.9
		c0-0.7,0-1.5,0-1.6c-0.1-0.1-0.6,0-0.9,0c-0.5,0-0.7-0.1-1.4,0c-0.5,0-0.9,0.1-1.1,0c0-0.1,0-0.5,0-1c0-0.4,0-0.9,0.1-0.9
		c0.2-0.1,0.6-0.1,0.9-0.1c0.8,0,1.3,0,2,0c0.8,0,1.4,0,2.2,0c0.8,0,1.4,0,2,0c0.2,0,0.8,0,1.5,0c0.5,0,0.2,0.2,0.3,0.6
		c0,0.2,0.1,1.1-0.1,1.2c-0.1,0.1-0.5,0.1-0.9,0.1c-0.6,0-0.8,0-1.7,0c-0.4,0-0.7,0-0.9,0c0,0.3-0.1,1.2-0.1,2
		C127,19.2,127,20.7,127,20.7z"/>
</g>
</svg>
