<svg id="logo.svg" xmlns="http://www.w3.org/2000/svg" width="141.313" height="50.5" viewBox="0 0 141.313 50.5">
  <defs>
    <style>
      .cls-1 {
        fill: #bc204b;
      }

      .cls-1, .cls-2 {
        fill-rule: evenodd;
      }

      .cls-2 {
        fill: #3d3935;
      }
    </style>
  </defs>
  <path id="_2000_logo.png" data-name="2000% logo.png" class="cls-1" d="M145.365,23.562a36.079,36.079,0,0,0-9.09,10.349c22.25-7.5,19.895,25.749-.778,21.458a29.149,29.149,0,0,1-4.156,13.639c0.58-4.514,2.5-8.785-1.038-13.891-2.019-2.913-9.825-1.845-12.467-4.8-7.339-8.2.569-21.568,11.948-15.65-1.22-3.867-2.13-11.973.258-16.156,1.771-.123,2.4.862,3.637,1.262,0.54,0.556-.412,1.084-0.262,2.019,0.713-.908,1.167-2.064,1.819-3.029a6.5,6.5,0,0,1,3.378,2.274c-0.653,1.554-1.5,2.912-2.079,4.543,1.963-.953,3.925-4.094,6.753-5.049,1.425,0.3,1.447,1.959,2.077,3.029" transform="translate(-115 -18.5)"/>
  <path class="cls-2" d="M159.1,33.607l-0.264-2.138V31.247a2.517,2.517,0,0,1,.324-1.371,1.925,1.925,0,0,1,1.653-.5,6.146,6.146,0,0,1,2.6.585,5,5,0,0,1,2.013,1.614,7.641,7.641,0,0,1,1.46,4.6,14.637,14.637,0,0,1-.454,4.085,7.931,7.931,0,0,1-1.533,2.793q1.915,1.554,2.2,5.1,0.048,0.807.06,1.936a9.851,9.851,0,0,1-.227,2.219,7.617,7.617,0,0,1-.791,2.077,6.964,6.964,0,0,1-1.389,1.715,7.046,7.046,0,0,1-4.814,1.573,1.245,1.245,0,0,1-1.318-.766,4.993,4.993,0,0,1-.215-1.412l0.479-8.794Zm2.084,19.907,0.047,0.2v1.856a3.591,3.591,0,0,0,2.48-1.644,4.7,4.7,0,0,0,.827-2.461q0-1.139-.037-1.8a11.8,11.8,0,0,0-.227-1.634,9.867,9.867,0,0,0-.479-1.694,2.957,2.957,0,0,0-2.227-2.037q-0.218,2.663-.216,6.253Zm0.311-17.789v6.152q2.587-.061,2.587-5.224t-2.012-5.365A10.9,10.9,0,0,0,161.493,35.725Zm9.174,0.686L170.4,32.921Q170.4,30,172.464,30a17.363,17.363,0,0,1,3.592.515q2.275,0.514,2.276,1.321,0,0.848-1.438,1.291a22.269,22.269,0,0,0-3.713-.787q0.073,0.888.073,1.775l-0.216,5.929q0,0.041.143,0.646l1.749-.061q2.371,0,2.371,1.13a0.965,0.965,0,0,1-.43.776,1.734,1.734,0,0,1-1.091.333,13.636,13.636,0,0,1-1.425-.081H173.11q0.144,1.573.144,3.126l-0.216,7.483a10.6,10.6,0,0,0,.1,2.32l3.617-.1q1.868,0,1.868,1.008a0.944,0.944,0,0,1-.647.908,3.608,3.608,0,0,1-1.461.283h-4.143a1.985,1.985,0,0,1-1.174-.373,1.146,1.146,0,0,1-.551-0.9V55.45l-0.311-6.978Zm10.9,0L181.3,32.921Q181.3,30,183.362,30a17.363,17.363,0,0,1,3.592.515q2.275,0.514,2.276,1.321,0,0.848-1.437,1.291a22.3,22.3,0,0,0-3.714-.787q0.073,0.888.073,1.775l-0.215,5.929q0,0.041.142,0.646l1.749-.061q2.371,0,2.371,1.13a0.965,0.965,0,0,1-.43.776,1.731,1.731,0,0,1-1.09.333,13.655,13.655,0,0,1-1.426-.081h-1.245q0.144,1.573.144,3.126l-0.215,7.483a10.652,10.652,0,0,0,.095,2.32l3.617-.1q1.868,0,1.868,1.008a0.944,0.944,0,0,1-.647.908,3.608,3.608,0,0,1-1.461.283h-4.143a1.985,1.985,0,0,1-1.174-.373,1.146,1.146,0,0,1-.551-0.9V55.45l-0.311-6.978ZM196.559,56.6l-0.1-3.167q0-.02.072-1.411-0.192-.525-0.779-9.318t-0.634-10.75H194.93q-3.977-.06-3.977-1.23a0.746,0.746,0,0,1,.528-0.635,2.376,2.376,0,0,1,1.03-.252l6.659,0.383,0.79-.02q1.533,0,1.533.988a0.934,0.934,0,0,1-.5.817,2.086,2.086,0,0,1-1.126.313l-2.251-.282-0.1.424q0,3.913.814,11.718t0.815,11.739a1.054,1.054,0,0,1-.528.857,1.944,1.944,0,0,1-1.149.373Zm9.629-13.17-0.048,4.477a31.5,31.5,0,0,0,.934,8.612l-0.551,1.109h-1.365l-0.647-.605q0.048-1.855.048-4.165t-0.419-9.873q-0.418-7.564-.419-11.295,0-1.957,1.628-1.957a7.788,7.788,0,0,1,4.312,1.129,3.621,3.621,0,0,1,1.749,3.227V37a4.5,4.5,0,0,1-.527,2.168q-0.526.978-1.222,2.057t-0.767,1.2q0.264,1.009.935,3.953,1.437,6.434,3.185,9.258a2.679,2.679,0,0,1,.5,1.261,1.047,1.047,0,0,1-1.1,1.079q-1.03,0-1.977-1.986a22.075,22.075,0,0,1-1.52-4.407,81.971,81.971,0,0,0-2.132-8.148h-0.6Zm0.192-12.162-0.168.585q0,1.694.095,4.891t0.1,4.649a4.054,4.054,0,0,0,1.857-2.632,11.338,11.338,0,0,0,.707-3.257,13.513,13.513,0,0,0-.073-1.664,5.493,5.493,0,0,0-.311-1.18A2.162,2.162,0,0,0,206.38,31.267Zm8.886,13.372,0.048-1.573c0-.134-0.024-0.2-0.072-0.2V42.119q0-6.494.886-9.237a6.5,6.5,0,0,1,1.437-2.864,2.225,2.225,0,0,1,1.366-.545q5.7,0,7.856,4.841a16.759,16.759,0,0,1,1.246,6.857v0.3l0.1,4.679q0,11.88-6.54,11.88a4.53,4.53,0,0,1-4.143-2.521,13.276,13.276,0,0,1-1.677-4.76A44.2,44.2,0,0,1,215.266,44.64Zm2.9-5.648L217.925,42.8a42.106,42.106,0,0,0,1.15,10.448q1.221,2.6,2.323,3.066a2.43,2.43,0,0,0,1.6-.605,4.117,4.117,0,0,0,1.137-1.624,16.09,16.09,0,0,0,.707-2.148,20.022,20.022,0,0,0,.407-2.38,35.372,35.372,0,0,0,.24-3.751q0-1.553-.323-4.76t-0.324-4.78V35.544a3.987,3.987,0,0,0-1.173-2.693,3.8,3.8,0,0,0-2.875-1.18,2.166,2.166,0,0,0-2.227,1.593,10.245,10.245,0,0,0-.456,3.288Zm12.7,5.648,0.048-1.573c0-.134-0.024-0.2-0.072-0.2V42.119q0-6.494.886-9.237a6.5,6.5,0,0,1,1.437-2.864,2.225,2.225,0,0,1,1.366-.545q5.7,0,7.856,4.841a16.775,16.775,0,0,1,1.246,6.857v0.3l0.095,4.679q0,11.88-6.539,11.88a4.53,4.53,0,0,1-4.143-2.521,13.238,13.238,0,0,1-1.677-4.76A44.2,44.2,0,0,1,230.859,44.64Zm2.9-5.648L233.518,42.8a42.156,42.156,0,0,0,1.149,10.448q1.222,2.6,2.323,3.066a2.433,2.433,0,0,0,1.606-.605,4.117,4.117,0,0,0,1.137-1.624,15.946,15.946,0,0,0,.706-2.148,20.017,20.017,0,0,0,.408-2.38,35.372,35.372,0,0,0,.24-3.751q0-1.553-.324-4.76t-0.324-4.78V35.544a3.978,3.978,0,0,0-1.173-2.693,3.8,3.8,0,0,0-2.874-1.18,2.165,2.165,0,0,0-2.227,1.593,10.217,10.217,0,0,0-.456,3.288ZM251.386,56.6l-0.1-3.167q0-.02.072-1.411-0.192-.525-0.779-9.318t-0.634-10.75h-0.192q-3.977-.06-3.977-1.23a0.746,0.746,0,0,1,.528-0.635,2.376,2.376,0,0,1,1.03-.252L254,30.219l0.79-.02q1.533,0,1.533.988a0.934,0.934,0,0,1-.5.817,2.086,2.086,0,0,1-1.126.313l-2.251-.282-0.1.424q0,3.913.814,11.718t0.815,11.739a1.054,1.054,0,0,1-.528.857,1.944,1.944,0,0,1-1.149.373Z" transform="translate(-115 -18.5)"/>
</svg>
