<svg xmlns="http://www.w3.org/2000/svg" viewBox="0 0 470 470"><defs><style>.cls-1{fill:#fff;}.cls-2{fill:#3d3935;}.cls-3{fill:#f1b828;}.cls-4{fill:#7d6378;}.cls-5{fill:#e06287;}.cls-6{fill:#489fdf;}</style></defs><title>beetroot_web</title><g id="_02" data-name="02"><path class="cls-1" d="M149.66,416.11c2.57,0,9.12-.77,9-3.85L150.33,410Z"/><path class="cls-2" d="M149.66,416.61h-.56l.79-7.24,9.25,2.5,0,.37a2.6,2.6,0,0,1-.79,2C156.54,416.11,151.87,416.61,149.66,416.61Zm1.1-6-.54,5c2.37-.08,6.07-.68,7.43-2.1a1.72,1.72,0,0,0,.48-.87Z"/><path class="cls-1" d="M190.38,411.86l16.3-12.53L192,380.7l-13,6.89c-6.61,2.5-20.12,6.31-18.5,18.36.53,4,3.23,5.14,3.23,5.14l-3.52,4.41c-2.06,3.38,1.76,6.46,11.16,4.55s14.54-5.58,14.54-5.58l2.48-1Z"/><path class="cls-2" d="M166.11,421.13c-3.12,0-5.4-.76-6.43-2.22a3.21,3.21,0,0,1,.08-3.68l3.2-4a7.17,7.17,0,0,1-3-5.22c-1.54-11.48,10.15-15.73,17.13-18.27l1.69-.62,13.34-7.06,15.24,19.36-16.69,12.83L188.55,414l-2.43.93c-.6.42-5.68,3.8-14.68,5.63A27.16,27.16,0,0,1,166.11,421.13Zm25.77-39.79L179.22,388l-1.76.65c-7.13,2.59-17.91,6.51-16.48,17.2.49,3.65,2.91,4.74,2.93,4.75l.6.26-3.93,4.92a2.26,2.26,0,0,0-.07,2.53c1,1.44,4.36,2.52,10.75,1.22,9.17-1.86,14.3-5.46,14.35-5.5l.11-.06,2.41-.93,2-1.61L206,399.25Zm-3.51,32.17h0Z"/><path class="cls-3" d="M310.71,184.54l-.58-39a2.38,2.38,0,0,1,2.35-2.41l14.39-.15a2.38,2.38,0,0,1,2.4,2.34l.78,43.94Z"/><path class="cls-2" d="M330.56,189.91l-20.35-5-.59-39.36a2.88,2.88,0,0,1,2.85-2.92l14.39-.15h0a2.89,2.89,0,0,1,2.88,2.83Zm-19.36-5.77,18.34,4.49-.77-43.29a1.88,1.88,0,0,0-1.88-1.85h0l-14.39.15a1.88,1.88,0,0,0-1.86,1.91Z"/><path class="cls-2" d="M202.53,235.21c-5.54,4.55-4.84,10.21-6.72,12.66s-10.28,7.71-10.88,14.43c-.65,7.31,5.34,12.26,3.16,16.61-1.91,3.83-8.11,6.53-8.5,12.85-.32,5.15,54.41,1.39,55.76-2,1.58-4,6.72-9.87,6.72-15,0-9.69-9-13.73-9.89-17.8-.79-3.76.65-12.32-2.37-16-3.56-4.35-9.89-8.31-13.84-8.7S205.89,232.45,202.53,235.21Z"/><path class="cls-2" d="M195.12,294.79a67.69,67.69,0,0,1-12.94-.9c-1.37-.31-3.18-.87-3.1-2.16.26-4.22,3-6.87,5.35-9.22a16.1,16.1,0,0,0,3.21-3.83c1-2,0-4.28-1.08-6.92s-2.46-5.8-2.13-9.51c.45-5.13,5.23-9.38,8.39-12.19a23.41,23.41,0,0,0,2.59-2.51,10.3,10.3,0,0,0,1.31-3.35c.78-2.81,1.75-6.31,5.49-9.38h0c3.34-2.75,9.35-3.52,13.81-3.08,4.08.41,10.57,4.48,14.18,8.88,2.12,2.59,2.16,7.22,2.19,11.3a28.88,28.88,0,0,0,.28,4.93c.28,1.34,1.64,2.78,3.22,4.45,3,3.15,6.68,7.08,6.68,13.45,0,3.56-2.29,7.37-4.32,10.73a35,35,0,0,0-2.44,4.49c-.94,2.35-18,3.76-23.26,4.14S200.85,294.79,195.12,294.79Zm7.72-59.19c-3.5,2.87-4.42,6.2-5.16,8.88a10.88,10.88,0,0,1-1.48,3.69,23.67,23.67,0,0,1-2.72,2.64c-3.22,2.87-7.64,6.79-8.06,11.53-.31,3.47.95,6.42,2.06,9,1.22,2.86,2.27,5.34,1.06,7.76a16.74,16.74,0,0,1-3.4,4.09c-2.37,2.33-4.81,4.74-5.05,8.57,0,.21.37.57,1.5.91,4.14,1.25,15.78,1.44,29.67.5s23-2.59,23.63-3.61A35.42,35.42,0,0,1,237.4,285c2-3.25,4.17-6.93,4.17-10.21,0-6-3.55-9.73-6.4-12.76-1.68-1.78-3.13-3.32-3.47-4.93a29.31,29.31,0,0,1-.31-5.13c0-3.72-.06-8.35-2-10.67-3.46-4.23-9.65-8.13-13.5-8.52-4.12-.41-10,.3-13.08,2.85Z"/><path class="cls-4" d="M195.61,284.45c-3.09,1.24-9.92,4.55-12.06,4.75s-4.39,1.58-6.53,3-10.32,18.79-13.43,29.66-6.7,21.55-4.56,26.69c1.48,3.55,8,5.7,14.24,7.91,1.31.47,17.95,11.67,32,15.42s38.09-5.26,38.84-7.32.54-6.13,1-6.53c1.47-1.29,8.7-9.49,10.68-16.61,1.09-3.92-3.19-22-3.83-26.1-1.12-7.32-5.07-25.51-10.5-26.89-5.84-1.49-22.56-6.73-26.45-7.12C209.05,280.69,201.54,282.07,195.61,284.45Z"/><path class="cls-2" d="M213,373.24a30.87,30.87,0,0,1-7.9-.91c-11.16-3-24-10.67-29.43-14-1.25-.75-2.33-1.4-2.56-1.48l-.93-.33c-6-2.11-12.11-4.28-13.6-7.86-2-4.71.67-13.72,3.46-23.27.36-1.25.73-2.5,1.09-3.76,2.91-10.17,11.2-28.36,13.64-29.94s4.55-2.84,6.75-3c1.44-.13,5.34-1.85,8.48-3.23,1.33-.58,2.54-1.12,3.44-1.48h0c6.37-2.55,13.87-3.77,19.57-3.2,2.59.26,10.55,2.57,17.57,4.6,3.57,1,6.95,2,9,2.53,6.9,1.76,10.83,27,10.87,27.3.16,1,.53,2.88,1,5.23,1.46,7.18,3.66,18,2.8,21.08-2,7.16-9.17,15.39-10.83,16.85-.05.14-.12,1.09-.17,1.85a17.83,17.83,0,0,1-.68,4.47C243.77,366.77,226.75,373.24,213,373.24Zm-17.19-88.33c-.89.36-2.1.89-3.41,1.47-3.37,1.48-7.19,3.17-8.79,3.31-2,.18-4.11,1.47-6.3,2.89-1.9,1.23-10,18.14-13.22,29.38-.36,1.26-.73,2.52-1.09,3.76-2.73,9.37-5.32,18.22-3.49,22.6,1.32,3.16,7.26,5.27,13,7.3l.93.33a28.15,28.15,0,0,1,2.74,1.57c5.43,3.26,18.15,10.89,29.17,13.85,14.09,3.78,37.41-5.36,38.24-7a17.21,17.21,0,0,0,.62-4.19c.11-1.58.17-2.23.51-2.53,1.4-1.23,8.6-9.42,10.53-16.37.79-2.83-1.47-14-2.82-20.62-.48-2.36-.86-4.23-1-5.28-1.47-9.62-5.52-25.31-10.13-26.48-2-.52-5.41-1.5-9-2.54-6.63-1.92-14.89-4.32-17.39-4.57-5.55-.56-12.87.64-19.1,3.13Z"/><path class="cls-2" d="M237.53,294l-.15,0a.5.5,0,0,1-.33-.62c.06-.2,1.5-4.83,4.22-5.48a.5.5,0,0,1,.23,1c-1.8.43-3.14,3.61-3.5,4.8A.5.5,0,0,1,237.53,294Z"/><path class="cls-3" d="M173.26,356.42c2,.2,8.88,1.58,14.43,1.58,5.93,0,8.7-.79,9.49-.59s8.83-.45,9.29.79c1.11,3,7.68,5.93,15,5.73,7.52-.2,11-1,13.64-.35a72.4,72.4,0,0,0,8.9.94c3.95.25,19,1.19,25.31,3.76,4.84,2-9.1,23.93-10.48,24.32s-50.39,6.93-52.2,6.72c-6.92-.79-24.28-2.71-26.3-8.31C176.82,381.14,172.26,356.32,173.26,356.42Z"/><path class="cls-2" d="M206.83,399.84h-.21l-.25,0c-7.29-.83-24.36-2.78-26.46-8.6-3.15-8.75-8.19-33.65-7.1-35.05l.17-.22h.33c.53.05,1.4.19,2.49.36a82.31,82.31,0,0,0,11.89,1.22,57.94,57.94,0,0,0,7.53-.47,7,7,0,0,1,2.08-.1c.19,0,1.17,0,2,0,4.85-.08,7.22.06,7.6,1.09,1,2.71,7.45,5.59,14.55,5.41,2.93-.08,5.25-.25,7.12-.39,3-.22,4.94-.37,6.66.06a77.74,77.74,0,0,0,8.81.93c12.66.79,21.22,2.07,25.47,3.79.66.27,1.42,1,1.32,2.82-.31,5.82-10.17,22-11.85,22.44C258.71,393.18,211.09,399.84,206.83,399.84ZM173.61,357c-.11,3.13,3.94,24.73,7.24,33.89,1.88,5.24,19.14,7.21,25.63,7.95l.25,0h.06c2.3,0,49.92-6.14,52-6.71,1.14-.67,11.5-16.73,11.13-22.09-.07-1-.54-1.22-.7-1.29-2.85-1.16-9.53-2.74-25.14-3.72a78.36,78.36,0,0,1-9-1c-1.56-.39-3.46-.25-6.34,0-1.88.14-4.21.31-7.16.39-7.86.21-14.36-3-15.51-6.06-.48-.55-5-.47-6.65-.44a13.81,13.81,0,0,1-2.3,0,8.28,8.28,0,0,0-1.72.13,59.63,59.63,0,0,1-7.65.48,82.93,82.93,0,0,1-12-1.23C174.81,357.14,174.12,357,173.61,357Zm-.4,0h0Z"/><path class="cls-2" d="M196.5,389.27a.5.5,0,0,1-.5-.5c0-3.37.21-7.25.43-11.36.37-6.86.75-14,.26-20a.5.5,0,0,1,.46-.54.49.49,0,0,1,.54.46c.5,6.07.11,13.2-.26,20.1-.22,4.1-.43,8-.43,11.3A.5.5,0,0,1,196.5,389.27Z"/><path class="cls-3" d="M172.87,338.43c.4-8.7,3.15-22.55,5.54-26.89,3.36-6.13,15.23-7.71,19.18,2s4.94,29.07,4.55,30.65-4.94.59-6.33.79S172.77,340.56,172.87,338.43Z"/><path class="cls-2" d="M199.62,345.58c-.64,0-1.31,0-2-.09a11.33,11.33,0,0,0-1.78,0c-1.49.23-20.51-3.85-23.07-6.18a1.11,1.11,0,0,1-.43-.86h0c.41-9.13,3.24-22.81,5.6-27.11,1.81-3.3,6.05-5.43,10.34-5.18a11,11,0,0,1,9.75,7.21c4,9.75,5,29.23,4.57,31C202.35,345.34,201.09,345.58,199.62,345.58Zm-3.32-1.16c.4,0,.89,0,1.43.07,1.31.09,3.74.25,3.92-.45.32-1.27-.57-20.65-4.53-30.34a10,10,0,0,0-8.88-6.59c-3.92-.23-7.77,1.7-9.4,4.67-2.26,4.11-5.07,17.79-5.47,26.64.25.47,2.81,1.76,10.9,3.76a92.73,92.73,0,0,0,11.46,2.29A4,4,0,0,1,196.3,344.43Zm-22.94-6Z"/><path class="cls-2" d="M198.08,345.26h0a.5.5,0,0,1-.49-.51c0-.19.28-18.73-.74-25.72a.5.5,0,0,1,.42-.57.51.51,0,0,1,.57.42c1,7.08.76,25.12.75,25.88A.5.5,0,0,1,198.08,345.26Z"/><path class="cls-2" d="M195.56,329.24h0a.5.5,0,0,1-.48-.52c0-.09.28-9.31-.72-13.05a.5.5,0,1,1,1-.26c1,3.88.77,13,.76,13.34A.5.5,0,0,1,195.56,329.24Z"/><path class="cls-2" d="M166.64,341a.5.5,0,0,1-.34-.87,10.29,10.29,0,0,1,6.56-2.16.51.51,0,0,1,.51.49.5.5,0,0,1-.49.51,9.52,9.52,0,0,0-5.9,1.89A.5.5,0,0,1,166.64,341Z"/><path class="cls-2" d="M167.08,338.29a.5.5,0,0,1-.19-1c.3-.13,3-1.24,4.59-.92a.5.5,0,0,1,.39.59.5.5,0,0,1-.59.39c-1.09-.21-3.26.55-4,.86A.51.51,0,0,1,167.08,338.29Z"/><path class="cls-2" d="M186.36,307h-.07a.5.5,0,0,1-.43-.56A21.77,21.77,0,0,0,184,296.17a.5.5,0,0,1,.91-.41,22.49,22.49,0,0,1,2,10.8A.5.5,0,0,1,186.36,307Z"/><path class="cls-2" d="M184.58,307.29a.5.5,0,0,1-.5-.5s0-3.29-1.11-5.08a.5.5,0,0,1,.85-.52c1.25,2,1.26,5.46,1.26,5.6A.5.5,0,0,1,184.58,307.29Z"/><path class="cls-2" d="M199.47,388.48a.5.5,0,0,1-.5-.5s.25-3.2,1.62-3.66c.64-.21,3.25-.67,6.87-1.3,5.11-.9,12.11-2.12,16.15-3.15a115.47,115.47,0,0,1,14.16-2.17,68.58,68.58,0,0,0,10-1.53.5.5,0,0,1,.31,1,67.18,67.18,0,0,1-10.17,1.57,114.93,114.93,0,0,0-14,2.15c-4.08,1-11.1,2.27-16.23,3.17-3.3.58-6.15,1.08-6.72,1.27S200,387.35,200,388A.5.5,0,0,1,199.47,388.48Z"/><path class="cls-2" d="M230.6,379.59a.5.5,0,0,1-.17-1c1.54-.55,3.38-1.29,5.34-2.07,4.9-2,10.45-4.16,14-4.7a.5.5,0,1,1,.15,1c-3.42.52-8.92,2.71-13.76,4.64-2,.78-3.82,1.52-5.37,2.08Z"/><path class="cls-1" d="M203.63,387.68c-6,1.88-14.06.79-20.7,2.28s-8.62,2-8.71,4-1.78,9.7,2.57,10.7,27.91-2.91,29-5.25S204.39,387.45,203.63,387.68Z"/><path class="cls-2" d="M178.61,405.25a9.6,9.6,0,0,1-1.93-.14c-4.15-.94-3.43-7.08-3.08-10,.06-.49.11-.89.12-1.18.12-2.41,2.57-3,9.1-4.42a56.52,56.52,0,0,1,9.86-1c3.92-.16,7.61-.31,10.79-1.3a.67.67,0,0,1,.73.26c1.08,1.24,3.17,9.76,2.05,12.12C205,402.17,185.59,405.25,178.61,405.25Zm24.93-17c-3.26,1-7.1,1.12-10.82,1.27a55.67,55.67,0,0,0-9.69.95c-6.4,1.43-8.25,1.92-8.33,3.5,0,.3-.06.73-.12,1.25-.34,2.86-1,8.19,2.31,8.94,5,1.13,27.67-3.32,28.45-5C206.26,397.25,204.39,389.5,203.54,388.23Zm.09-.55h0Z"/><path class="cls-2" d="M203.83,388.28a.5.5,0,0,1-.47-.34,5.22,5.22,0,0,0-2.79-2.68.5.5,0,1,1,.37-.93,6.16,6.16,0,0,1,3.37,3.29.5.5,0,0,1-.32.63Z"/><path class="cls-2" d="M183.33,399.07a.5.5,0,0,1-.5-.49c0-.06-.1-6.33-.39-8.55a.5.5,0,1,1,1-.13c.3,2.28.4,8.4.4,8.66a.5.5,0,0,1-.49.51Z"/><path class="cls-2" d="M196.08,398.39a.5.5,0,0,1-.5-.44,46.89,46.89,0,0,1-.28-4.74c0-1.2-.05-2.44-.19-4.2a.5.5,0,1,1,1-.07c.13,1.78.16,3.1.19,4.25a45.43,45.43,0,0,0,.28,4.65.5.5,0,0,1-.44.55Z"/><path class="cls-5" d="M213.62,341.91c-.38,1.47-.22,15.64-.22,17s12.29,1.12,12.29,0V341.84C225.68,341.09,213.78,341.26,213.62,341.91Z"/><path class="cls-2" d="M219.12,360.32a30.59,30.59,0,0,1-4-.23c-1.09-.15-2.2-.42-2.2-1.2v-1.15c0-6.8-.06-14.76.25-16h0c.36-1.39,11.54-.77,11.65-.75.59.08,1.4.18,1.4.8v17.06C226.18,359.84,223.81,360.32,219.12,360.32Zm-5.23-1.54c1.1.74,10,.7,11.29,0V342.11c-1.5-.41-9.69-.33-11.12.12-.18,1.25-.24,6.46-.18,15.51Zm0,.12h0Z"/><ellipse class="cls-4" cx="219.68" cy="341.83" rx="6.01" ry="2.05"/><path class="cls-2" d="M219.68,344.37c-3.23,0-6.51-.87-6.51-2.55,0-3.34,13-3.34,13,0C226.19,343.5,222.92,344.37,219.68,344.37Zm0-4.09c-3.56,0-5.51,1-5.51,1.54s1.94,1.55,5.51,1.55,5.51-1,5.51-1.55S223.25,340.28,219.68,340.28Z"/><path class="cls-1" d="M194.44,346.28c3.28-.39,3.48-2,6.11-3.35,1.34-.7,5.79,0,7.1-.26,1.71-.33,2.91-1.2,3.48-1s.59,1.71-.92,2.83-4,.92-4.53,1.18,1.39.51,2.63.33,3.74-.92,4.53,0-.27,2.21-.07,2.17c.59-.13.59,1.51,0,2.69-.11.23.46,1.58-.33,2.5a3.09,3.09,0,0,1-.53,1.84,12.86,12.86,0,0,1-4.53,2.69c-2.23.46-10.81-1.23-13.07-1.64-1.45-.26-2-2.61-2-4.86C192.38,349.5,193.46,346.39,194.44,346.28Z"/><path class="cls-2" d="M206.34,358.48a79.47,79.47,0,0,1-11.29-1.58l-.83-.15c-1.83-.33-2.43-3-2.38-5.36,0-1.87,1.12-5.44,2.54-5.61h0a5.87,5.87,0,0,0,3.64-1.68,12,12,0,0,1,2.3-1.61c.94-.49,2.88-.4,4.76-.32a14.66,14.66,0,0,0,2.47,0,10.79,10.79,0,0,0,2-.63c.75-.3,1.29-.51,1.77-.33a1.09,1.09,0,0,1,.65.93,3.11,3.11,0,0,1-1.44,2.76,3.59,3.59,0,0,1-.46.29c1.26-.21,2.51-.27,3.17.5a2.09,2.09,0,0,1,.17,2.22l.06.07c.47.61.29,2-.18,3,0,.06,0,.13,0,.22a3,3,0,0,1-.38,2.35s0,0,0,0a2.85,2.85,0,0,1-.59,1.89,13,13,0,0,1-4.84,2.89A6,6,0,0,1,206.34,358.48ZM194.5,346.77c-.47.06-1.62,2.53-1.66,4.64-.05,2.39.59,4.18,1.56,4.36l.83.15c2.77.52,10.13,1.88,12.05,1.49a12.57,12.57,0,0,0,4.23-2.5,1.86,1.86,0,0,0,.4-1.27.81.81,0,0,1,.15-.6,2.05,2.05,0,0,0,.24-1.66,1.2,1.2,0,0,1,0-.74,3.56,3.56,0,0,0,.37-1.94l-.11,0-.22-.24c-.21-.26-.09-.53,0-.76.21-.48.41-1,.09-1.39s-2.06-.2-3.13,0l-1,.17c-.35.05-3,.2-3.23-.61l-.13-.41.43-.26a4.09,4.09,0,0,1,1.22-.24,7.33,7.33,0,0,0,3.23-.9,2.34,2.34,0,0,0,1-1.56.65.65,0,0,0-.05-.42,6,6,0,0,0-1,.35,11.68,11.68,0,0,1-2.16.68,14.64,14.64,0,0,1-2.7,0c-1.5-.07-3.56-.16-4.25.2a11,11,0,0,0-2.12,1.49,6.85,6.85,0,0,1-4.16,1.91Z"/><path class="cls-2" d="M209,349.73a.5.5,0,0,1,0-1,6.83,6.83,0,0,0,3.38-1,.5.5,0,1,1,.63.78,7.73,7.73,0,0,1-4,1.23Z"/><path class="cls-2" d="M208.64,352.89a.5.5,0,0,1-.05-1c.8-.09,3.08-.54,3.94-1.59a.5.5,0,1,1,.77.63c-1.3,1.59-4.47,1.94-4.6,2Z"/><path class="cls-2" d="M208.5,355.64a.5.5,0,0,1-.07-1,7.29,7.29,0,0,0,3.84-1.94.5.5,0,0,1,.75.66,8.19,8.19,0,0,1-4.44,2.26Z"/><path class="cls-5" d="M209.56,345.75c-1.93.68,3.48-3.28,3.94-2.43a16.42,16.42,0,0,1-.13,2.63S212.71,344.63,209.56,345.75Z"/><path class="cls-2" d="M213.68,347.69l-.76-1.52h0s-.59-.87-3.2.05h0c-.54.19-.89.11-1-.24-.41-1,3.34-2.92,3.38-2.94.4-.19,1.48-.7,1.87,0,.07.13.2.38-.08,2.92Zm-1.91-2.89A3.09,3.09,0,0,1,213,345c0-.51.08-1,.08-1.28a9.31,9.31,0,0,0-2.1,1.14A5.32,5.32,0,0,1,211.77,344.8Z"/><path class="cls-1" d="M233.89,355.21c-1.23.54-1.26-1.56-4-2.45-1.64-.53-3.35-2.76-3.78-2a2.69,2.69,0,0,0,.59,2.74c.82.74,1,1.63.52,1.71-.81.12-4.89.59-7.12-.52s-4.37-2.74-5.34-2.08-.09,2-.37,1.78-1.41-.3-1.48.67,1.11,2,1,2.15c-.34.34-.89,1-.48,1.68s1.44,1.07,1.22,1.44-.6,1-.15,1.48c.82.89,4.08,2.52,6.67,3.11s11.42-.82,13.05-1.41,3.71-1.56,3.63-4.23C237.76,356.92,235.6,354.47,233.89,355.21Z"/><path class="cls-2" d="M222.91,365.57a9,9,0,0,1-1.88-.15c-2.68-.61-6.05-2.31-6.93-3.26a1.56,1.56,0,0,1,0-1.91l-.3-.25a3.7,3.7,0,0,1-.82-.82,1.67,1.67,0,0,1,.31-2l-.06-.09a3.24,3.24,0,0,1-.81-2,1.3,1.3,0,0,1,.69-1.11,1.54,1.54,0,0,1,.71-.16h0a1.57,1.57,0,0,1,.67-1.55c1-.68,2.46.17,4.19,1.14.53.3,1.09.62,1.65.9,1.72.86,4.91.72,6.65.49a2.09,2.09,0,0,0-.61-.86,3.15,3.15,0,0,1-.69-3.36.78.78,0,0,1,.53-.39c.53-.11,1.08.32,1.85.92a7.48,7.48,0,0,0,2,1.25,6,6,0,0,1,2.84,2c.53.6.59.6.81.5h0A2.43,2.43,0,0,1,236,355a5.43,5.43,0,0,1,2.32,4.23c.09,3.24-2.75,4.27-4,4.71A54.62,54.62,0,0,1,222.91,365.57Zm-9.1-10.81a.54.54,0,0,0-.25.05s-.13.07-.15.3a2.55,2.55,0,0,0,.63,1.35c.26.36.55.76.19,1.12-.2.2-.64.7-.41,1.05a3,3,0,0,0,.6.59c.39.32,1,.79.62,1.38s-.37.71-.21.89a17.35,17.35,0,0,0,6.42,3c2.44.56,11.09-.78,12.77-1.39s3.37-1.53,3.3-3.74a4.5,4.5,0,0,0-1.85-3.42,1.48,1.48,0,0,0-1.38-.21h0c-.93.4-1.47-.21-2-.76a5,5,0,0,0-2.4-1.67,8.14,8.14,0,0,1-2.3-1.41,8.14,8.14,0,0,0-1-.68,2.33,2.33,0,0,0,.55,2,2.23,2.23,0,0,1,.92,2,.8.8,0,0,1-.67.56c-.5.07-5,.66-7.41-.57-.58-.29-1.15-.61-1.7-.92-1.25-.71-2.67-1.51-3.13-1.19s-.3.53-.16,1a.64.64,0,0,1-.15.75l-.27.21-.34-.19A.72.72,0,0,0,213.8,354.76Z"/><path class="cls-2" d="M236.12,363.57a.5.5,0,0,1-.08-1c3.53-.59,7.41-3.62,8.64-4.92a.5.5,0,0,1,.72.69c-1.36,1.43-5.39,4.58-9.2,5.22Z"/><path class="cls-2" d="M224.1,358.6h0c-3.51-.16-8.17-1.45-10.08-3.9a.5.5,0,1,1,.79-.62c1.65,2.1,5.95,3.36,9.34,3.52a.5.5,0,0,1,0,1Z"/><path class="cls-2" d="M223.59,361.5l-.13,0a8.16,8.16,0,0,0-.89-.14,15.46,15.46,0,0,1-9-3.76.5.5,0,0,1,.69-.73,14.55,14.55,0,0,0,8.48,3.5,9,9,0,0,1,1,.16.5.5,0,0,1-.13,1Z"/><path class="cls-2" d="M223.36,363.65h0l-.56,0a14.39,14.39,0,0,1-8.46-2.88.5.5,0,1,1,.63-.77,13.51,13.51,0,0,0,7.9,2.66l.58,0a.5.5,0,0,1,0,1Z"/><path class="cls-2" d="M232.85,355a.5.5,0,0,1-.35-.86,43.44,43.44,0,0,0,7.67-10.76,27.27,27.27,0,0,1,2.61-4.19c1.21-1.44,4-2.67,5.87-2.08a.5.5,0,0,1-.3,1c-1.38-.44-3.84.63-4.8,1.77a26.58,26.58,0,0,0-2.5,4,44.27,44.27,0,0,1-7.84,11A.5.5,0,0,1,232.85,355Z"/><path class="cls-2" d="M242.57,340.21a.5.5,0,0,1-.5-.46,51,51,0,0,0-1.94-7.8c-2.45-8.39-6.15-21.07-4.13-31.48a.51.51,0,0,1,.59-.4.5.5,0,0,1,.4.59c-2,10.17,1.69,22.71,4.11,31a50.91,50.91,0,0,1,2,8,.5.5,0,0,1-.46.54Z"/><path class="cls-2" d="M253.39,334a.5.5,0,0,1-.46-.31c0-.09-3.6-8.76-4.34-16.46a.5.5,0,0,1,.45-.55.51.51,0,0,1,.55.45c.73,7.55,4.23,16.08,4.26,16.17a.5.5,0,0,1-.27.65A.49.49,0,0,1,253.39,334Z"/><path class="cls-2" d="M235.89,323.16a.5.5,0,0,1-.49-.39,117.37,117.37,0,0,1-2.09-13.27.5.5,0,1,1,1-.08,116.33,116.33,0,0,0,2.07,13.13.5.5,0,0,1-.38.6Z"/><path class="cls-5" d="M182.83,413.53c-3.69,3.23-21.69,7.42-22.45,2.92-.39-2.34,4.22-5.64,4.46-6,.34-.55-2.66-2.19-2.54-6a13.32,13.32,0,0,1,4.84-9.14c1.58-1.35,7.09-4.79,8.69-4.26,3.31,1.1,4.3,6.92,3.54,9.82C178.83,402.91,182.83,413.53,182.83,413.53Z"/><path class="cls-2" d="M165.24,418.93a10.64,10.64,0,0,1-3.46-.47,2.53,2.53,0,0,1-1.89-1.92c-.36-2.13,2.59-4.69,4-5.92l.41-.36c-.09-.12-.24-.3-.37-.46a7.69,7.69,0,0,1-2.13-5.4,13.74,13.74,0,0,1,5-9.5c1.28-1.09,7.16-5,9.17-4.35,3.7,1.24,4.62,7.54,3.86,10.42-.36,1.39,1.92,8.33,3.44,12.38l.12.32-.26.23C180.63,416.12,171.28,418.93,165.24,418.93Zm10.15-27.46c-1.59,0-6.23,2.75-7.93,4.2a12.89,12.89,0,0,0-4.66,8.77,6.7,6.7,0,0,0,1.9,4.72c.48.58.86,1,.56,1.52a4,4,0,0,1-.72.69c-1.08.94-3.94,3.42-3.67,5,.08.5.49.88,1.24,1.15,4.45,1.59,16.78-1.65,20.12-4.15-.76-2-3.87-10.64-3.35-12.65.69-2.63-.17-8.21-3.21-9.22A.88.88,0,0,0,175.4,391.46Z"/><path class="cls-2" d="M164.84,410.92a.5.5,0,0,1-.36-.85,40.47,40.47,0,0,1,14.71-9.69.5.5,0,1,1,.35.94,39.45,39.45,0,0,0-14.34,9.45A.5.5,0,0,1,164.84,410.92Z"/><path class="cls-1" d="M213.15,243.68c-.51.21-2.08,4.22-4.12,5.87-4.84,3.91-7.2,5.66-7.31,7.61-.08,1.44.21,2.68-.41,2.68s-2-3.38-3.7-2.47c-2.26,1.23.71,3.83,1.13,5.45.51,2,2.41,1.54,2.47,2.06.39,3.43,2.68,7.1,2.57,8s-.62,7.51-1.23,8.33-6,2.88-6,2.88c.1,1,6.48,10.5,17,8.64s13-8.27,12.55-8.54c-.93-.51-5.56-2.47-5.76-3.19s-2.06-5.35-1.44-5.76a13.29,13.29,0,0,0,3.7-5.66c.51-1.75,1.5-5.21,1.65-5.25,1.75-.41,2.16-1.85,2.78-2.68s2.31-3.14.93-4.32-2.89,1.67-3,.82c-.72-6.17-5-7.61-7.41-9.67C216,247.13,213.25,243.65,213.15,243.68Z"/><path class="cls-2" d="M210.88,293.5A16.29,16.29,0,0,1,201,290c-2.93-2.22-4.87-5.07-5-5.88l0-.38.36-.14c2.51-1,5.42-2.28,5.75-2.71.2-.28.55-1.79,1.06-7.32,0-.36.06-.63.07-.77a9.44,9.44,0,0,0-.73-2,22.85,22.85,0,0,1-1.82-5.72l-.25-.07a2.79,2.79,0,0,1-2.23-2.07,6.88,6.88,0,0,0-.82-1.55c-.68-1.08-1.38-2.2-1.11-3.24a2,2,0,0,1,1-1.22c1.47-.81,2.72.79,3.46,1.74.12.15.26.34.39.48,0-.23,0-.54,0-.79s0-.79,0-1.23c.11-2,2.21-3.72,6.41-7.1l1.08-.87a15.53,15.53,0,0,0,3-4.21c.65-1.18.9-1.59,1.24-1.73s.39-.12,1.5,1.18a41.76,41.76,0,0,0,3.44,3.74,19.75,19.75,0,0,0,1.69,1.25c2.25,1.56,5,3.48,5.79,8.08.63-.57,1.76-1.48,2.9-.49s.89,2.69-.85,5c-.13.17-.25.38-.38.59a4.22,4.22,0,0,1-2.46,2.21c-.24.64-.9,2.88-1.27,4.13l-.24.83a14,14,0,0,1-3.81,5.87,20.79,20.79,0,0,0,1.24,4.38c.15.42.27.75.31.9a25,25,0,0,0,4.14,2.22c.62.29,1.13.53,1.38.67s.38.33.29.83c-.22,1.3-3.22,6.92-13,8.64A15.91,15.91,0,0,1,210.88,293.5Zm-13.65-9.1c1,1.82,6.78,9.53,16.24,7.87,9.09-1.6,11.88-6.65,12.17-7.73l-1.09-.52c-3.5-1.65-4.51-2.26-4.68-2.85,0-.14-.15-.45-.29-.84-1.38-3.87-1.59-5-.95-5.47a13,13,0,0,0,3.5-5.38l.24-.83c1.36-4.67,1.39-4.68,1.77-4.77a3.17,3.17,0,0,0,2.06-1.81,8,8,0,0,1,.44-.68c1.36-1.82,1.7-3,1-3.64-.47-.41-.95-.12-1.71.59-.37.34-.66.62-1,.47a.63.63,0,0,1-.4-.56c-.54-4.63-3.15-6.44-5.46-8a20.48,20.48,0,0,1-1.78-1.32,42,42,0,0,1-3.54-3.85l-.53-.62c-.16.27-.38.65-.57,1a16,16,0,0,1-3.25,4.51l-1.08.87c-4,3.2-6,4.8-6,6.38,0,.41,0,.8,0,1.15,0,.81,0,1.4-.31,1.75a.8.8,0,0,1-.59.24c-.45,0-.78-.42-1.27-1.05-.8-1-1.52-1.84-2.19-1.48a1,1,0,0,0-.56.6c-.16.62.45,1.6,1,2.46a7.37,7.37,0,0,1,.94,1.83,1.8,1.8,0,0,0,1.54,1.36c.4.11.89.25.95.77a21.52,21.52,0,0,0,1.77,5.6,6.59,6.59,0,0,1,.8,2.53c0,.14,0,.4-.07.75-.47,5.05-.82,7.25-1.26,7.83C202.37,282.32,198.86,283.77,197.23,284.41Zm22-8.72h0Zm-6-32h0Z"/><path class="cls-2" d="M221.9,285.24a.5.5,0,0,1-.45-.28,25,25,0,0,1-1.59-3.83.5.5,0,0,1,1-.2,23.48,23.48,0,0,0,1.5,3.58.5.5,0,0,1-.22.67A.49.49,0,0,1,221.9,285.24Z"/><path class="cls-2" d="M201.32,284.83a.5.5,0,0,1-.45-.72,18.37,18.37,0,0,0,1.19-2.88.51.51,0,0,1,.52-.48.49.49,0,0,1,.48.48,15.26,15.26,0,0,1-1.28,3.3A.5.5,0,0,1,201.32,284.83Z"/><path class="cls-2" d="M213.22,277.64a13.48,13.48,0,0,1-1.47-.08,11.5,11.5,0,0,1-8.37-4.68.5.5,0,0,1,.83-.56,10.65,10.65,0,0,0,7.66,4.25c2.73.3,5.3-.33,6.71-1.66a.5.5,0,1,1,.68.73A8.84,8.84,0,0,1,213.22,277.64Z"/><path class="cls-2" d="M224.55,262.65l-.16,0a.5.5,0,0,1-.32-.63,6.79,6.79,0,0,1,1.85-2.66.5.5,0,0,1,.66.75,5.88,5.88,0,0,0-1.56,2.23A.5.5,0,0,1,224.55,262.65Z"/><path class="cls-2" d="M200.67,263.17h0a.5.5,0,0,1-.48-.52,2.91,2.91,0,0,0-1.28-2.31.5.5,0,0,1,.58-.81,3.91,3.91,0,0,1,1.69,3.17A.5.5,0,0,1,200.67,263.17Z"/><path class="cls-2" d="M214.83,263.34h-1.92a.5.5,0,0,1,0-1h.38a31.31,31.31,0,0,0,4.2-.09c-.16-.46-.58-1.35-.94-2.09A29.66,29.66,0,0,1,214.8,256a.5.5,0,1,1,1-.27,29.38,29.38,0,0,0,1.68,4c1,2.18,1.3,2.76,1,3.18S217.8,263.34,214.83,263.34Zm2.71-.86h0Zm.19-.3Z"/><path class="cls-2" d="M214.69,267.31a9.34,9.34,0,0,1-2.9-.45.5.5,0,0,1,.31-1,8.6,8.6,0,0,0,4.85.1.5.5,0,0,1,.32.95A8.86,8.86,0,0,1,214.69,267.31Z"/><path class="cls-2" d="M214.72,269.12a5.34,5.34,0,0,1-1.21-.12.5.5,0,0,1-.37-.6.49.49,0,0,1,.6-.37,5.63,5.63,0,0,0,1.79,0,.5.5,0,1,1,.15,1A6.91,6.91,0,0,1,214.72,269.12Z"/><ellipse class="cls-2" cx="221.07" cy="257.26" rx="0.54" ry="1.31"/><path class="cls-2" d="M221.07,259.07c-.62,0-1-.73-1-1.81s.42-1.81,1-1.81,1,.91,1,1.81S221.79,259.07,221.07,259.07Zm0-2.24a2.61,2.61,0,0,0,0,.85,2.61,2.61,0,0,0,0-.85Z"/><ellipse class="cls-2" cx="207.29" cy="257.51" rx="0.72" ry="1.4"/><path class="cls-2" d="M207.29,259.41c-.7,0-1.22-.81-1.22-1.9s.53-1.9,1.22-1.9,1.22.81,1.22,1.9S208,259.41,207.29,259.41Zm0-2.8a2.62,2.62,0,0,0-.18.9,1.26,1.26,0,0,0,.27.9,2.62,2.62,0,0,0,.18-.9A1.26,1.26,0,0,0,207.25,256.61Z"/><path class="cls-2" d="M218.43,256a.5.5,0,0,1-.26-.93c2.73-1.66,5.91-.14,6-.07a.5.5,0,0,1-.44.9s-2.83-1.34-5.09,0A.5.5,0,0,1,218.43,256Z"/><path class="cls-2" d="M203.46,256.52a.5.5,0,0,1-.21-1c2.86-1.3,5.22-1.34,7.63-.14a.5.5,0,1,1-.45.89c-1.43-.71-3.49-1.34-6.77.15A.5.5,0,0,1,203.46,256.52Z"/><path class="cls-5" d="M218.39,406.16c1.33-1.12,4.15-7.86-1.19-8-4-.11-14.24.21-17.52.42-.74,0,.51,2,.34,3.16-.38,2.63-1.42,6.36-.91,6.36C204.75,408.08,214.05,409.83,218.39,406.16Z"/><path class="cls-2" d="M209,409c-1.86,0-3.77-.12-5.6-.23-1.56-.1-3-.19-4.32-.19h-.24l-.22-.22c-.31-.38-.21-1.09.32-3.71.21-1,.42-2.07.55-3a4.45,4.45,0,0,0-.31-1.63c-.23-.73-.4-1.26-.13-1.65a.72.72,0,0,1,.57-.31c3.32-.21,13.55-.53,17.57-.42,2.22.06,3.07,1.18,3.39,2.11.79,2.27-.8,5.85-1.9,6.78h0C216.37,408.52,212.8,409,209,409Zm-9.55-1.42c1.22,0,2.58.1,4,.19,5.07.31,11.38.7,14.58-2h0c.78-.66,2.25-3.83,1.6-5.69-.33-.93-1.14-1.4-2.48-1.44-3.89-.11-13.67.2-17.22.4,0,.19.13.47.19.67a5,5,0,0,1,.35,2.07c-.14,1-.36,2.07-.56,3.06S199.51,407,199.48,407.58Zm18.92-1.43h0Z"/><path class="cls-1" d="M198.08,403c5.34-.44,17.2-2.82,17.65-1.48s4.89,12,2.82,12.75-18.24,1.33-19,.74S198.08,403,198.08,403Z"/><path class="cls-2" d="M204.48,415.76a21.9,21.9,0,0,1-5.23-.32c-.75-.61-1.33-7.06-1.67-12.37l0-.49.49,0c1.71-.14,4.09-.48,6.6-.84,8.62-1.24,11.19-1.43,11.56-.3.06.18.2.55.39,1,1.83,4.81,3.6,10,2.8,11.69a1.18,1.18,0,0,1-.68.65C216.94,415.42,209.63,415.76,204.48,415.76Zm-4.59-1.11c1.58.38,16.42-.07,18.49-.81,0,0,.06,0,.11-.13.73-1.58-1.95-8.61-2.83-10.92-.17-.45-.31-.8-.38-1-.86-.48-6.65.35-10.5.9-2.3.33-4.48.64-6.17.81C198.94,408.47,199.49,413.78,199.89,414.65Z"/><path class="cls-5" d="M199.8,400.6c1.95.32,4.17,6.43,3.95,10.72s-1.69,6.32-4.17,6.77c-3.58.65-23.91-.9-24.82-10.26-.62-6.4,8.46-7.22,14.44-7.11C193.49,400.79,199.12,400.48,199.8,400.6Z"/><path class="cls-2" d="M197.37,418.72c-4.85,0-14.44-1.28-19.59-5.17a8.09,8.09,0,0,1-3.52-5.69,5.34,5.34,0,0,1,1.38-4.31c2.7-2.92,8.88-3.43,13.57-3.34,2.35,0,5.05,0,7.22-.08a33.63,33.63,0,0,1,3.45,0h0c2.37.4,4.59,6.93,4.37,11.24s-1.73,6.71-4.58,7.23A13.89,13.89,0,0,1,197.37,418.72Zm-9.16-17.52c-4.34,0-9.57.57-11.85,3a4.31,4.31,0,0,0-1.11,3.54,7.13,7.13,0,0,0,3.13,5c5.87,4.44,18.24,5.36,21.1,4.84,1.49-.27,3.5-1.22,3.76-6.3.22-4.2-2-9.94-3.53-10.2h0c-.26,0-1.71,0-3.26,0-2.18.06-4.9.13-7.27.08Z"/><path class="cls-2" d="M174.76,407a.5.5,0,0,1-.5-.46,5.56,5.56,0,0,1,1.43-4.37c3.23-3.61,10.89-4,13.16-4.07,5.81-.11,10.47,0,10.51,0a.5.5,0,0,1,0,1h0s-4.68-.11-10.47,0c-2.17,0-9.47.43-12.43,3.74a4.53,4.53,0,0,0-1.18,3.61.5.5,0,0,1-.45.54Z"/><path class="cls-6" d="M353.8,376.79s-7.77-2-8.6-4.15c-2.67-6.92-11-31.44-30.55-52.5-5.58-6-18-6.09-21.36-3.56-4.75,3.56-5.34,9.49-9.19,16.91-4.11,7.89-20.54,43.8-23.23,47.85-.4.59-7.71,3.37-12.66,6.13a98.63,98.63,0,0,1-12.26,5.34c-4.63,1.66-12.65,4-19.18,6.13-4.75,1.58-1.68,17.2,2.17,17.59,3,.31,14.25.12,23.73-.79a64.28,64.28,0,0,0,27.79-9.29c.89-.59,23.73,7.71,46.27,10.68,17,2.24,47.46,3,51.61.89S353.8,376.79,353.8,376.79Zm-68.81,3c-.59,0,8.51-12.07,13.25-21.15a53.88,53.88,0,0,0,3.75-9.1c.32-.94,6.34,14.24,8.51,19.78,1.68,4.27,4,9.76,4.95,10.08C316,379.56,288.74,379.56,285,379.76Z"/><path class="cls-2" d="M352.74,419.76a313.68,313.68,0,0,1-36.09-2.13c-15.15-2-30.15-6.31-39.12-8.89a66.07,66.07,0,0,0-6.89-1.81,65.37,65.37,0,0,1-27.94,9.32c-9.48.91-20.81,1.11-23.83.79-2.5-.25-4.4-5.29-4.9-9.89s.46-8,2.63-8.67c3-1,6.24-2,9.4-3,3.74-1.16,7.27-2.25,9.78-3.15A97.46,97.46,0,0,0,248,387c2.68-1.5,6-3,8.62-4.15a34.46,34.46,0,0,0,3.89-1.87c1.54-2.32,8-16,13.7-28.05,4-8.47,7.79-16.47,9.47-19.71a72.71,72.71,0,0,0,3.1-7.05c1.62-4.08,3-7.61,6.23-10,3.52-2.64,16.21-2.63,22,3.62,18.23,19.61,26.77,42.34,30,50.89.25.67.48,1.27.67,1.77.54,1.4,5.35,3.1,8.26,3.85l.23.06.1.21c0,.1,4.72,9.92,8.83,19.86,8.48,20.53,6.37,21.58,5.47,22C366.76,419.37,360.57,419.76,352.74,419.76Zm-82.13-13.83c.69,0,2.31.44,7.2,1.85,8.94,2.57,23.89,6.88,39,8.86,17.71,2.33,47.44,2.88,51.32.94,1.82-.91-3.17-16.25-14.66-40.36-1.48-.39-7.88-2.21-8.72-4.4l-.67-1.77c-3.2-8.51-11.69-31.1-29.78-50.56-5.38-5.79-17.48-5.91-20.69-3.5-3,2.25-4.28,5.49-5.9,9.59a73.6,73.6,0,0,1-3.15,7.14c-1.68,3.22-5.46,11.22-9.45,19.68-6,12.68-12.19,25.8-13.8,28.22-.24.36-1.08.76-4.29,2.19-2.63,1.17-5.9,2.63-8.54,4.11a98.69,98.69,0,0,1-12.33,5.37c-2.53.91-6.07,2-9.82,3.16-3.15,1-6.41,2-9.37,3-1.63.54-2.4,3.53-1.95,7.62.51,4.63,2.39,8.84,4,9,3,.31,14.21.11,23.63-.8A64.14,64.14,0,0,0,270.17,406,.73.73,0,0,1,270.61,405.92Zm14.09-25.65-.18-.28c-.23-.4-.24-.42,2.91-5.07a186.87,186.87,0,0,0,10.36-16.55,52.45,52.45,0,0,0,3.59-8.63l.24-.73.4,0c.5,0,1,0,8.94,20.14,3.48,8.82,4.49,9.71,4.66,9.8l.4.14-.07.41c0,.18,0,.29-.65.37v0l0,0c-1.2.15-4.52.17-13.92.23-7.12,0-14.49.1-16.31.2Zm17.47-29.72a53.22,53.22,0,0,1-3.49,8.28,187.45,187.45,0,0,1-10.42,16.65c-1,1.5-2,2.94-2.49,3.74,2.67-.08,9.21-.12,15.55-.17,5.11,0,10.77-.07,13-.13-.74-1.1-2-3.61-4.32-9.47C306.23,359.78,303.31,352.75,302.17,350.55Z"/><path class="cls-2" d="M232.19,397.66a.5.5,0,0,1-.17-1c6.85-2.55,10.74-5.46,15.88-9.61a.5.5,0,1,1,.63.78c-5.22,4.21-9.16,7.17-16.16,9.77A.49.49,0,0,1,232.19,397.66Z"/><path class="cls-2" d="M270.75,407l-.15,0a22.26,22.26,0,0,1-5.28-2.64.5.5,0,0,1,.57-.82,21.7,21.7,0,0,0,5,2.5.5.5,0,0,1-.15,1Z"/><path class="cls-2" d="M346.81,381.25c-1.68,0-4.28-.16-8.16-.41-5.86-.37-13.88-.88-23.22-1a.5.5,0,0,1,0-1h0c9.37.1,17.41.61,23.28,1,5.13.32,9.17.58,9.93.24a27.06,27.06,0,0,0,4.8-3.67.5.5,0,0,1,.68.73,27.34,27.34,0,0,1-5.08,3.85A6.36,6.36,0,0,1,346.81,381.25Z"/><path class="cls-2" d="M260.27,382.23a.5.5,0,0,1-.21-1c4.16-1.87,19.66-2.38,25-2a.5.5,0,0,1,.46.53.49.49,0,0,1-.53.46c-5.92-.41-20.66.22-24.48,1.93A.49.49,0,0,1,260.27,382.23Z"/><path class="cls-2" d="M302,350a.48.48,0,0,1-.18,0,.5.5,0,0,1-.29-.64,15.27,15.27,0,0,0,.57-6.67.5.5,0,0,1,.42-.57.51.51,0,0,1,.57.42,16,16,0,0,1-.62,7.17A.5.5,0,0,1,302,350Z"/><path class="cls-2" d="M299.22,351a.5.5,0,0,1-.47-.68c1.8-4.6,1.52-9.74,1.16-13.21a.5.5,0,1,1,1-.11c.38,3.58.66,8.88-1.22,13.68A.5.5,0,0,1,299.22,351Z"/><path class="cls-5" d="M314.64,297.1c2.78-.31,13.45-1.19,16.61-1.19s13.53-2.71,17-3.56a32.5,32.5,0,0,1,11.85-.19c2.18.5,20.3-11.51,22.38-12,2.34-.52,2.6,3.38,4.53,3.46,2.37.1.79,2.37,2,3.16s15.45,14.59,16.61,15.42c2.64,1.89,4.35,5.93,5.54,11.07s7.78,21.52,9.34,29.59c1,5.11,2.82,13.4,2.34,14.83-1.82,5.46-17,4.74-18.48,6.25-2.08,2.08-4.16,16.39-12,29.66-7,11.93-15.64,25.26-20.78,25.26s-9.89-8.31-11.86-15-2.94-18.73-10-24.28c-5-3.93-4.68-6.77-4.5-7,2.29-2.44,1.88-9.1,1.09-14.63s-5.42-35.61-5.54-35.59c-7.89,1.46-25.52-1.55-26.1-2.27-2.42-3-6.8-4.18-7.12-4.45C302.12,311,309.75,297.65,314.64,297.1Z"/><path class="cls-2" d="M371.59,419.41c-5.74,0-10.52-9.2-12.34-15.39-.45-1.52-.85-3.32-1.27-5.22-1.44-6.51-3.23-14.61-8.59-18.81-4.08-3.2-4.7-5.72-4.77-6.65a1.48,1.48,0,0,1,.21-1c1.18-1.26,2.31-4.76,1-14.22-.72-5.06-4.76-31.35-5.43-35.09-7.64,1.17-25.15-1.36-26.1-2.53-1.82-2.26-4.91-3.47-6.22-4a3.14,3.14,0,0,1-.83-.39c-2.11-1.83-2.6-5-1.37-9,1.44-4.64,5.39-10.08,8.76-10.46h0c2.87-.32,13.52-1.19,16.67-1.19,2.65,0,10.67-2,15-3.08l1.9-.47a33.22,33.22,0,0,1,12.08-.19c1.14.24,9.17-4.55,14-7.41,4.53-2.7,7.34-4.37,8.21-4.56,1.62-.36,2.44.93,3.11,2,.48.75.93,1.46,1.55,1.48,1.86.08,1.9,1.39,1.93,2.17,0,.55,0,.9.3,1.08.62.41,4,3.57,9,8.34,3.49,3.3,7.09,6.72,7.61,7.09,2.51,1.79,4.38,5.51,5.73,11.37.48,2.08,1.86,6,3.45,10.6,2.32,6.66,5,14.21,5.89,19,.18.91.38,1.92.59,3,1.27,6.33,2.14,10.9,1.74,12.11-1.31,3.94-8.54,4.84-13.82,5.51-2.06.26-4.4.55-4.78.93-.71.71-1.54,3.41-2.59,6.84-1.78,5.77-4.46,14.5-9.3,22.73C382.43,411.54,375.89,419.41,371.59,419.41Zm-26-46.5c0,.33-.12,2.78,4.38,6.3,5.64,4.42,7.48,12.72,9,19.38.42,1.88.81,3.66,1.25,5.16,2.09,7.11,6.79,14.67,11.38,14.67,5.64,0,16.71-18.83,20.35-25,4.78-8.13,7.44-16.79,9.2-22.51,1.18-3.83,2-6.36,2.84-7.25.6-.6,2.25-.83,5.36-1.22,4.73-.59,11.88-1.49,13-4.83.35-1.05-.92-7.4-1.77-11.6-.21-1.06-.42-2.07-.59-3-.91-4.72-3.54-12.24-5.85-18.87-1.6-4.6-3-8.57-3.48-10.71-1.29-5.61-3-9.13-5.34-10.78-.54-.38-3.27-3-7.72-7.17-3.88-3.68-8.29-7.85-8.88-8.24a2.1,2.1,0,0,1-.75-1.88c0-.83,0-1.17-1-1.2-1.14,0-1.78-1.05-2.35-1.94-.69-1.08-1.16-1.73-2-1.53s-4.39,2.34-7.91,4.44c-8,4.75-13.28,7.85-14.69,7.53a32,32,0,0,0-11.62.19l-1.89.47c-4.66,1.16-12.46,3.1-15.23,3.1-3.12,0-13.7.86-16.55,1.18-2.65.3-6.42,5-7.91,9.76-.64,2.07-1.36,5.85,1.06,7.95l.55.22c1.39.55,4.65,1.83,6.63,4.3,1.11.69,18,3.5,25.62,2.1l.21,0,.17.12c.48.34,5.69,35.57,5.74,35.93C347.91,365.86,347.53,370.76,345.63,372.91Z"/><path class="cls-2" d="M340.74,322.91a.5.5,0,0,1-.5-.45c-.81-8.05-.44-13.93,1.17-18.5a.5.5,0,0,1,.94.33c-1.54,4.36-1.91,10.27-1.12,18.06a.5.5,0,0,1-.45.55Z"/><path class="cls-2" d="M338.77,320.8a.5.5,0,0,1-.49-.43c0-.07-1-7.16-3.25-10.74a.5.5,0,1,1,.85-.53c2.38,3.76,3.35,10.84,3.39,11.14a.5.5,0,0,1-.43.56Z"/><path class="cls-1" d="M356.76,247.27c-.11,2.57.4,4.15,0,6.53s-2,9.1-2,13.25,7.81,15.13,7.61,16.91c0,.44.4,4,0,4.6-2.64,4-7.61,9.15-7.22,9.54,1.15,1.15,4.35,4.55,4.94,7.32s1.19,9.29,2,7.91,4.61-13,5.93-14.24c8.7-8.31,13.25-13.25,14.43-19.18,1.3-6.52,3.08-10.19,5.54-12.06,4.15-3.16,6-9.8,4.75-14.24-1.78-6.33-10.08-9.69-19-11.86S357,242.72,356.76,247.27Z"/><path class="cls-2" d="M361.88,314h-.11c-.71-.13-1-1.21-1.62-5.44-.18-1.16-.35-2.26-.52-3-.57-2.67-3.82-6.08-4.81-7.07-.51-.51,0-1.12,2.58-4.28,1.47-1.78,3.31-4,4.58-5.9a14.57,14.57,0,0,0,0-3.2,9,9,0,0,1-.05-1.18c.06-.58-1.48-3.35-2.73-5.57-2.29-4.09-4.89-8.73-4.89-11.28A66.4,66.4,0,0,1,355.84,256c.18-.93.34-1.71.43-2.25a14.43,14.43,0,0,0,.07-3.58,24.74,24.74,0,0,1-.07-2.89h0a5.52,5.52,0,0,1,2.46-4.13c3.4-2.55,9.36-3.29,15.16-1.87,7.33,1.79,17.32,5,19.34,12.21,1.23,4.38-.45,11.36-4.92,14.77-2.41,1.84-4.11,5.58-5.35,11.76-1.17,5.85-5.44,10.72-14.58,19.44-.75.71-2.67,5.89-3.94,9.31-.88,2.36-1.57,4.23-1.9,4.82A.75.75,0,0,1,361.88,314Zm-6.16-16.08c1.41,1.44,4.3,4.64,4.89,7.37.17.82.35,1.93.53,3.1.21,1.34.5,3.23.76,4.16.38-.87,1-2.48,1.6-4.17,1.85-5,3.34-8.87,4.18-9.68,9-8.57,13.17-13.34,14.29-18.92,1.29-6.44,3.11-10.37,5.72-12.36,4.15-3.16,5.71-9.64,4.57-13.7-1.43-5.1-7.35-8.76-18.62-11.51-5.53-1.35-11.15-.69-14.32,1.7a4.55,4.55,0,0,0-2.06,3.38,23.42,23.42,0,0,0,.07,2.78,15.23,15.23,0,0,1-.08,3.81c-.09.55-.25,1.34-.43,2.28A65.69,65.69,0,0,0,355.28,267c0,2.29,2.64,7,4.76,10.79,1.94,3.46,2.94,5.31,2.85,6.17,0,.11,0,.58.05,1,.16,2.21.18,3.35-.14,3.83-1.3,1.94-3.15,4.18-4.64,6A39,39,0,0,0,355.72,297.93Z"/><path class="cls-2" d="M349.81,380.27a.49.49,0,0,1-.26-.07c-.37-.24-.29-.46.1-1.51.26-.69.61-1.64.9-2.62a14.64,14.64,0,0,1,2.41-4.22,31.76,31.76,0,0,0,4.91-9.25c1-2.88.82-6.49.69-10a38.1,38.1,0,0,1,.08-6.14,19.86,19.86,0,0,1,1.47-4.88,22.54,22.54,0,0,0,1.69-5.79,67.08,67.08,0,0,0-.22-8.66c-.32-5.36-.68-11.44,0-14a.49.49,0,0,1,.62-.34.5.5,0,0,1,.34.62c-.67,2.35-.32,8.34,0,13.62a65.59,65.59,0,0,1,.22,8.84,23.37,23.37,0,0,1-1.75,6,19.09,19.09,0,0,0-1.41,4.64,37.55,37.55,0,0,0-.07,6c.13,3.42.27,7.29-.75,10.33a32.67,32.67,0,0,1-5,9.51,13.77,13.77,0,0,0-2.26,3.92c-.3,1-.67,2-.92,2.69-.11.3-.2.53-.25.68a.49.49,0,0,1-.14.41A.55.55,0,0,1,349.81,380.27Z"/><path class="cls-2" d="M373.17,307.69c-.81,0-1-1-1.4-2.7-.66-3-1.44-5.71-3.68-5.41a.5.5,0,0,1-.13-1c3.32-.47,4.21,3.54,4.79,6.19a13.66,13.66,0,0,0,.47,1.79c2.16-1.91,14.33-17.38,14.68-20.58a.49.49,0,0,1,.55-.44.5.5,0,0,1,.44.55c-.24,2.19-4.84,8.56-7.55,12.16C380.61,299.21,374.19,307.69,373.17,307.69Z"/><path class="cls-2" d="M399.67,303.54a.5.5,0,0,1-.28-.91c.14-.09,3.44-2.33,6.44-.83a.5.5,0,1,1-.45.89c-2.47-1.24-5.4.74-5.42.76A.5.5,0,0,1,399.67,303.54Z"/><path class="cls-2" d="M354,307.73a.86.86,0,0,1-.42-.09c-.72-.36-.47-1.27,0-2.93a23.76,23.76,0,0,0,1.11-6.62.5.5,0,0,1,1,0,25,25,0,0,1-1.15,6.89,11.3,11.3,0,0,0-.41,1.75,8.34,8.34,0,0,0,2.65-1.39c1.09-.8,1.63-1.47,1.67-1.79a.51.51,0,0,1,.57-.42.5.5,0,0,1,.42.57c-.17,1.21-2.27,2.71-3.63,3.43A4.16,4.16,0,0,1,354,307.73Zm.13-.87h0Z"/><path class="cls-1" d="M403.82,361.17c1.08,2.15,4.08,11.08,4,15-.15,4.72.66,9.23,2,15s7.56,28.67,12.2,31.9c2.29,1.6,6.46,2.8,10.9,2.87,5.81.1,7.19,2.37,9.86,2.86,1.89.35,2.15-.6,2.24-1.32.14-1.15-1.67-2.42-.85-2.43,2.7-.05,6.13-2.37,7.12-1.78a18.44,18.44,0,0,0,6.08,1.64c1.79.1,4.9-.6,4.6-1.83s-3.77-1.11-4.51-2.22-3.13-3.41-5.25-3.78c-2.35-.41-4.05-.46-5.47-1.12-1.76-.83-3.16-1-5.93-1.19s-10.68.79-11.27-.79-4.77-26.81-4.77-30.56-1.57-24.08-1.94-25.66c-.21-.92-3,1.65-8.91,2.84C407.82,361.79,403.43,360.38,403.82,361.17Z"/><path class="cls-2" d="M443.52,429.37a4.57,4.57,0,0,1-.83-.08,10,10,0,0,1-2.75-1.07,14,14,0,0,0-7-1.79c-4.32-.07-8.71-1.23-11.18-3-5.41-3.78-12.33-31.91-12.4-32.19-1.39-5.75-2.21-10.27-2.05-15.1.13-3.91-2.88-12.74-3.9-14.79h0a.63.63,0,0,1,0-.65c.27-.4.78-.36,2.14-.27a30,30,0,0,0,8.27-.39,28.62,28.62,0,0,0,6.95-2.39c1.17-.55,1.71-.8,2.16-.58a.72.72,0,0,1,.39.5c.4,1.76,1.95,22.24,1.95,25.78,0,3.91,4.24,29,4.74,30.39.29.77,5,.59,7.21.51,1.42-.05,2.76-.1,3.63,0,2.85.2,4.29.38,6.11,1.23a12.22,12.22,0,0,0,3.44.79c.58.08,1.21.17,1.9.29,2.31.4,4.81,2.84,5.58,4a4.53,4.53,0,0,0,2,.87c1.2.33,2.33.64,2.54,1.51a1.2,1.2,0,0,1-.27,1.09c-.84,1-3.34,1.45-4.84,1.36a18.82,18.82,0,0,1-6.31-1.71c-.28-.16-1.59.34-2.46.68a16,16,0,0,1-3.85,1.14,3.09,3.09,0,0,1,.8,2,2,2,0,0,1-.73,1.48A2.07,2.07,0,0,1,443.52,429.37Zm-39-68c1.23,2.78,3.92,10.92,3.79,14.8-.16,4.71.66,9.17,2,14.83,1.75,7.25,7.71,28.61,12,31.61,2.32,1.62,6.49,2.71,10.63,2.78a15.07,15.07,0,0,1,7.47,1.9,9.08,9.08,0,0,0,2.47,1,1.81,1.81,0,0,0,1.32-.1,1.05,1.05,0,0,0,.33-.79c0-.4-.34-.95-.63-1.34s-.57-.79-.38-1.18a.67.67,0,0,1,.64-.35,13,13,0,0,0,4-1.1c1.53-.59,2.64-1,3.34-.6a18.23,18.23,0,0,0,5.85,1.56c1.38.07,3.49-.37,4-1,.1-.12.08-.18.07-.21-.07-.29-1.18-.6-1.83-.78a4.62,4.62,0,0,1-2.6-1.28c-.71-1.07-3-3.23-4.92-3.56-.67-.12-1.29-.2-1.87-.28a12.94,12.94,0,0,1-3.73-.88c-1.67-.78-3-.94-5.76-1.14-.81-.06-2.12,0-3.52,0-4.62.17-7.68.18-8.19-1.16-.7-1.88-4.81-27-4.81-30.74s-1.48-22.63-1.88-25.32c-.28.09-.75.32-1.19.52a29.85,29.85,0,0,1-7.18,2.46,30.84,30.84,0,0,1-8.54.41Zm-.22-.47Z"/><path class="cls-2" d="M432,417.93a.49.49,0,0,1-.21,0c-.12-.05-2.88-1.37-2.79-3.94a.53.53,0,0,1,.52-.48.5.5,0,0,1,.48.52c-.07,1.92,2.19,3,2.21,3a.5.5,0,0,1-.21,1Z"/><path class="cls-2" d="M458.19,421.89a.5.5,0,0,1-.22,0c-5.79-2.78-8.88-2.32-11.6-1.92a11.49,11.49,0,0,1-4.69,0,.5.5,0,1,1,.24-1,10.58,10.58,0,0,0,4.31,0c2.72-.4,6.12-.9,12.18,2a.5.5,0,0,1-.22,1Z"/><path class="cls-2" d="M449.9,417.2h-.05c-1.8-.18-7.63-.18-7.69-.18a.5.5,0,0,1,0-1c.24,0,5.94,0,7.79.19a.5.5,0,0,1,0,1Z"/><path class="cls-2" d="M444,425.86a.5.5,0,0,1-.36-.16c-1.46-1.54-5.39-2.93-7.59-3a.5.5,0,0,1-.48-.52.49.49,0,0,1,.52-.48c2.4.07,6.63,1.57,8.28,3.31a.5.5,0,0,1-.36.84Z"/><path class="cls-2" d="M410.7,380.24a.5.5,0,0,1-.5-.5c0-.22,0-.46,0-.73a19.11,19.11,0,0,0-1.87-9.31.5.5,0,0,1,.91-.42,20,20,0,0,1,2,9.75c0,.26,0,.49,0,.71A.5.5,0,0,1,410.7,380.24Z"/><path class="cls-2" d="M403.82,361.67l-.14,0c-3.73-1.07-9.73-23-10.9-27.43-1.85-7-3.33-16.12-2.49-20.89a.5.5,0,1,1,1,.17c-.81,4.6.71,13.83,2.47,20.46,3.4,12.8,8,26.09,10.21,26.73a.5.5,0,0,1-.14,1Z"/><path class="cls-2" d="M392.44,331.28a.5.5,0,0,1-.48-.35c-.89-2.81-3.35-7.77-5.48-9.4a.5.5,0,0,1,.61-.79c2.51,1.92,5,7.39,5.82,9.9a.5.5,0,0,1-.33.63Z"/><path class="cls-2" d="M369.7,368.36a.5.5,0,0,1-.22-.95,83.94,83.94,0,0,0,21.23-15.2.5.5,0,0,1,.72.69,85,85,0,0,1-21.5,15.4A.5.5,0,0,1,369.7,368.36Z"/><path class="cls-2" d="M380,366.15a.5.5,0,0,1-.23-.94c3-1.57,11.48-7,14.87-11.18a.5.5,0,1,1,.78.63c-3.68,4.53-12.54,10-15.18,11.43A.5.5,0,0,1,380,366.15Z"/><path class="cls-2" d="M362.84,311.44a.5.5,0,0,1-.5-.44c0-.36-1-9-1-12.37,0-2.12.28-5.25.5-7.77.13-1.46.24-2.73.24-3.21a.5.5,0,1,1,1,0c0,.53-.11,1.75-.25,3.3-.21,2.36-.5,5.6-.5,7.68,0,3.34,1,12.16,1,12.25a.5.5,0,0,1-.44.55Z"/><path class="cls-4" d="M365.33,248.61c4.5.84,11.5-3.71,15-1.61s2.1,8.16.74,12.37-2.51,7.39-4.82,7.79c-3.59.62-8.45-1.88-14.22-2.35-4.08-.33-6.18.37-7.3,1s-2.34,7-1.85,11.87c.25,2.47,3.34,6.18,7.17,6.68s7.27-.93,8.53-1a8.71,8.71,0,0,0,5.81-2.47c1.27-1.07,1.74-3.82,3.09-4.7,3.22-2.1,4.08-6.18,5.81-10.39,1.44-3.51,1.75-8.22,4.08-8.53,2.72-.37,4.2,2.72,3.46,5.19s-5.12,4.55-6.06,6.43c-1.24,2.47-.87,6.18-.37,5.81.7-.52,2.65-3,6.31-6.8s8.53-14,5.56-21c-1.73-4.11-5.44-3.83-5.81-4.58-.67-1.33-1.57-9.76-13.48-10.88-14.47-1.36-16.45,4.08-17.81,6.55-.55,1-1.85,0-3.59,2.23-2.45,3.15,1.11,12.37,1.24,11.38.19-1.55,1.11-6.43,4.08-6.93S363.35,248.24,365.33,248.61Z"/><path class="cls-2" d="M361.67,285a13.55,13.55,0,0,1-1.72-.11c-3.93-.51-7.32-4.25-7.61-7.12-.45-4.53.51-11.47,2.11-12.36s4.29-1.32,7.58-1a42.84,42.84,0,0,1,7.27,1.4c2.66.68,5,1.27,6.83,1s3.09-3.3,4.43-7.45c2.06-6.36,1.88-10.32-.53-11.79-1.7-1-4.5-.24-7.46.6-2.54.72-5.18,1.47-7.33,1.07-1.1-.21-1.58-1.24-2-2.15-.59-1.26-1-2-2.27-1.8-2.84.47-3.59,5.88-3.67,6.49l0,.35-.38.15a.64.64,0,0,1-.69-.37c-.75-1.18-3.35-8.87-1-11.87a4.35,4.35,0,0,1,2.85-1.83c.46-.1.59-.14.69-.33l.23-.43c1.42-2.69,4.08-7.69,18.06-6.38,10.71,1,12.82,7.83,13.62,10.39a6.86,6.86,0,0,0,.26.76,6.38,6.38,0,0,0,.77.28,7.38,7.38,0,0,1,5.05,4.33c3.07,7.28-2,17.75-5.67,21.56-1.93,2-3.37,3.62-4.43,4.81a19.63,19.63,0,0,1-1.94,2,.61.61,0,0,1-.76,0c-.7-.58-.77-4.11.39-6.42a10.32,10.32,0,0,1,2.74-2.76c1.37-1.1,2.92-2.35,3.29-3.59a4.09,4.09,0,0,0-.7-3.7,2.39,2.39,0,0,0-2.22-.85c-1.28.17-1.9,2.38-2.55,4.71a31.88,31.88,0,0,1-1.13,3.52c-.36.88-.68,1.75-1,2.6-1.19,3.22-2.32,6.26-5,8a5.67,5.67,0,0,0-1.46,2.22,7.29,7.29,0,0,1-1.58,2.45,9.24,9.24,0,0,1-6.11,2.59,10.58,10.58,0,0,0-1.54.31A22.37,22.37,0,0,1,361.67,285ZM360,265.23a10.5,10.5,0,0,0-5.05,1c-.81.45-2.12,6.25-1.6,11.38.22,2.16,3,5.75,6.74,6.23a18.4,18.4,0,0,0,6.71-.66,10.54,10.54,0,0,1,1.73-.34,8.27,8.27,0,0,0,5.51-2.36,6.7,6.7,0,0,0,1.32-2.11,6.23,6.23,0,0,1,1.82-2.62c2.4-1.57,3.43-4.33,4.61-7.53.32-.86.65-1.75,1-2.63a31.32,31.32,0,0,0,1.09-3.41c.75-2.66,1.45-5.17,3.38-5.43a3.38,3.38,0,0,1,3.11,1.19,5.12,5.12,0,0,1,.89,4.64c-.46,1.54-2.07,2.83-3.62,4.09a9.91,9.91,0,0,0-2.47,2.42,9.25,9.25,0,0,0-.71,4.81c.34-.35.81-.88,1.39-1.53,1.06-1.19,2.51-2.83,4.46-4.84,3.42-3.54,8.32-13.7,5.46-20.48a6.32,6.32,0,0,0-4.44-3.76c-.67-.22-1.15-.38-1.36-.78a6.65,6.65,0,0,1-.32-.91c-.81-2.62-2.71-8.75-12.76-9.69-13.33-1.25-15.77,3.37-17.08,5.85l-.24.45a1.76,1.76,0,0,1-1.36.83,3.36,3.36,0,0,0-2.27,1.46c-1.6,2.06-.28,7.28.58,9.63.45-2.08,1.58-5.53,4.26-6,2.06-.34,2.8,1.22,3.34,2.37.43.92.73,1.49,1.29,1.59h0c1.93.36,4.44-.36,6.88-1,3.18-.91,6.18-1.76,8.26-.5,2.89,1.76,3.21,6,1,12.95-1.5,4.63-2.67,7.69-5.21,8.13-2.08.36-4.48-.26-7.25-1a42.23,42.23,0,0,0-7.1-1.38Q360.91,265.23,360,265.23Z"/><path class="cls-2" d="M386.1,264.69a.5.5,0,0,1-.26-.92c.22-.14,2.08-1.38,1.06-3.3a.5.5,0,0,1,.88-.47,3.41,3.41,0,0,1-1.41,4.62A.49.49,0,0,1,386.1,264.69Z"/><path class="cls-1" d="M356.57,268a39.67,39.67,0,0,1,4.32-.18c1.36,0,8.08.93,8,1.22s-4.62,2.43-7.72,2.25S356.33,268.14,356.57,268Z"/><path class="cls-2" d="M361.53,271.81h-.36a6.35,6.35,0,0,1-5.1-3.59l-.08-.38.36-.26h0a35.49,35.49,0,0,1,4.54-.24c.61,0,7.89.76,8.4,1.37l.15.18,0,.25C369.26,270.06,364.4,271.81,361.53,271.81Zm-4.23-3.37a5.56,5.56,0,0,0,3.93,2.36,16.07,16.07,0,0,0,6.5-1.58,63.31,63.31,0,0,0-6.83-.88C359.49,268.33,358.08,268.39,357.3,268.44Zm-.59.05h0Zm-.14-.48h0Z"/><path class="cls-2" d="M362.62,263.69a7.61,7.61,0,0,1-1.27-.11,2.83,2.83,0,0,1-2.4-2.72.93.93,0,0,1,.8-1c3.08-.26,4.17-1.69,4.82-3.06a.5.5,0,1,1,.9.43c-.72,1.51-2,3.29-5.52,3.62a1.33,1.33,0,0,0,.16.72,1.87,1.87,0,0,0,1.41,1,5.06,5.06,0,0,0,3.58-.52.5.5,0,0,1,.58.82A5.57,5.57,0,0,1,362.62,263.69Z"/><ellipse class="cls-2" cx="373.06" cy="258.18" rx="1.74" ry="1.01" transform="translate(75.27 600.45) rotate(-83.66)"/><path class="cls-2" d="M372.93,260.42h-.12c-.85-.1-1.39-1.12-1.25-2.39s.89-2.16,1.75-2.06a1.36,1.36,0,0,1,1.05.88,3,3,0,0,1,.2,1.51h0a3,3,0,0,1-.52,1.43A1.4,1.4,0,0,1,372.93,260.42Zm.25-3.47c-.18,0-.55.44-.63,1.18s.19,1.27.37,1.29.18-.06.31-.23a2,2,0,0,0,.33-1h0a2,2,0,0,0-.12-1c-.08-.19-.19-.28-.25-.29Z"/><ellipse class="cls-2" cx="358.49" cy="257.45" rx="1.44" ry="0.86" transform="translate(74.87 595.61) rotate(-85.7)"/><path class="cls-2" d="M358.43,259.39h-.08c-.77-.06-1.29-.94-1.21-2a2.52,2.52,0,0,1,.42-1.25,1.22,1.22,0,0,1,1.08-.59,1.23,1.23,0,0,1,1,.74,2.53,2.53,0,0,1,.23,1.3h0C359.77,258.62,359.16,259.39,358.43,259.39Zm.14-2.88s-.1,0-.19.16a1.54,1.54,0,0,0-.24.75c0,.61.2,1,.29,1h0c.09,0,.38-.31.43-.91h0a1.54,1.54,0,0,0-.12-.78c-.07-.14-.14-.19-.17-.19Zm.79,1h0Z"/><path class="cls-2" d="M378.56,258.6a.5.5,0,0,1-.3-.1c-1.18-.89-4.76-3.61-8-1.93a.5.5,0,0,1-.46-.89c3.81-2,7.78,1,9.08,2a.5.5,0,0,1-.3.9Z"/><path class="cls-2" d="M361.4,256.26a.5.5,0,0,1-.24-.06A5,5,0,0,0,357,256a.5.5,0,1,1-.45-.89,5.9,5.9,0,0,1,5.06.23.5.5,0,0,1-.24.94Z"/><path class="cls-1" d="M314.64,297.1c-3.12.11-4.76.49-4.7.17,2.92-14.8,1-46.69,4-50.36.86-1,5.22-2.63,10.3-3.24,11.45-1.39,11.23-4.21,13.82-4.95,4.15-1.19,7.56-1.19,7.71-1.93.26-1.32,0-2.66-3.22-3.23s-32-.38-34.53,1.14-6.49,5.15-7.82,8-6.69,30.92-7.26,48c-.29,8.58.17,20.46,0,21.59-.29,2,1,3.48,2.37,3.13a22.56,22.56,0,0,1,7.29-.38c1.56.18,4.83.95,4.83.95.47,0,.08-5.65,1.61-10.23C310.76,300.62,314.93,297.09,314.64,297.1Z"/><path class="cls-2" d="M307.45,316.47h-.11s-3.26-.76-4.77-.94a21.84,21.84,0,0,0-7.11.37,2.16,2.16,0,0,1-2-.52,3.51,3.51,0,0,1-1-3.16c.06-.41,0-2.78,0-5.52-.07-4.58-.16-10.85,0-16,.57-17.21,6-45.38,7.3-48.16,1.41-3,5.56-6.72,8-8.23,2.65-1.63,31.5-1.81,34.88-1.21,1.68.3,2.76.83,3.31,1.62a2.81,2.81,0,0,1,.32,2.2c-.15.75-1.17.92-3.2,1.27a44.17,44.17,0,0,0-4.86,1,5.13,5.13,0,0,0-1.74,1c-1.55,1.18-3.91,3-12.16,4-5.13.62-9.27,2.2-10,3.06-1.45,1.77-1.69,11.48-2,21.76-.24,9.71-.52,20.69-1.86,27.9l.91-.07c.78-.07,1.85-.17,3.19-.21H315l.15.31c.15.34,0,.51-.54,1.08a22.86,22.86,0,0,0-5,7.91,32.61,32.61,0,0,0-1.26,8C308.14,315.87,308.1,316.47,307.45,316.47Zm-7.31-2.08a22.63,22.63,0,0,1,2.54.13c1.25.15,3.53.65,4.47.86,0-.36.09-1,.13-1.56a33.49,33.49,0,0,1,1.31-8.24,23.19,23.19,0,0,1,4.94-7.92c-.8,0-1.46.11-2,.15-1.29.12-1.68.15-1.94-.14l-.17-.19,0-.31c1.4-7.11,1.68-18.32,1.93-28.21.32-12.61.59-20.44,2.18-22.37,1.07-1.31,5.84-2.84,10.63-3.42,8-1,10.21-2.65,11.68-3.76a6,6,0,0,1,2.07-1.17,45.05,45.05,0,0,1,5-1.07,11.07,11.07,0,0,0,2.4-.55,1.74,1.74,0,0,0-.18-1.37,4,4,0,0,0-2.65-1.2c-3.49-.61-32-.29-34.18,1.08s-6.32,5-7.63,7.8-6.64,30.66-7.21,47.77c-.17,5.14-.08,11.4,0,16,.05,3.41.07,5.21,0,5.68a2.53,2.53,0,0,0,.67,2.27,1.14,1.14,0,0,0,1.08.3A20.83,20.83,0,0,1,300.14,314.39Z"/><path class="cls-2" d="M303,299.32a.5.5,0,0,1-.21-1,18.65,18.65,0,0,1,7.41-1.47.49.49,0,0,1,.51.49.5.5,0,0,1-.49.51,17.64,17.64,0,0,0-7,1.37A.5.5,0,0,1,303,299.32Z"/><path class="cls-2" d="M324.25,244.17a.5.5,0,0,1-.23-.94,6.81,6.81,0,0,0,2.43-2.34c.74-1,1.43-2,2.84-2.07.56,0,1.19,0,1.81-.06,1.25,0,3.34-.05,3.55-.53a1.57,1.57,0,0,0-.37-1.27,3.63,3.63,0,0,0-3.29-1.44,9.82,9.82,0,0,0-5.55,2,3.18,3.18,0,0,1-1.23.65,3.42,3.42,0,0,1-2-.74,7.79,7.79,0,0,0-4.75-1.38,21.35,21.35,0,0,0-6.55,1.78.5.5,0,0,1-.43-.9,22,22,0,0,1,6.91-1.87,8.71,8.71,0,0,1,5.34,1.51c.58.33,1.13.67,1.4.61a3.36,3.36,0,0,0,.81-.48,10.84,10.84,0,0,1,6.06-2.19,4.68,4.68,0,0,1,4.17,1.86,2.44,2.44,0,0,1,.47,2.24c-.46,1.08-2.31,1.11-4.46,1.14-.6,0-1.21,0-1.75.05-.9.06-1.36.64-2.1,1.66a7.83,7.83,0,0,1-2.78,2.64A.49.49,0,0,1,324.25,244.17Z"/><path class="cls-2" d="M313.31,248.56h-.06a.5.5,0,0,1-.43-.56c.25-2,.59-5,.59-5l1,.11s-.34,3.08-.59,5A.5.5,0,0,1,313.31,248.56Z"/><path class="cls-5" d="M117.1,240.06c-4.3,7.73-2,12.06-3.86,16.31-1.48,3.41-11.12,7.27-14.09,17.5-3.26,11.26,10.83,14.24,19.72,15.28s16-3.11,17.94-11.57c.92-4.05-.59-7.27,1.63-9.94s16-5.19,16.91-13.94c.74-7.42-5.19-8.31-5.19-8.6,0-.94.26-12.12-9.94-13.2C130.45,230.86,120.81,233.38,117.1,240.06Z"/><path class="cls-2" d="M121.56,289.8a23.74,23.74,0,0,1-2.73-.16c-10.23-1.19-16.52-3.75-19.22-7.82a9.35,9.35,0,0,1-.93-8.09c2-6.84,6.84-10.86,10.39-13.79,1.75-1.45,3.25-2.69,3.72-3.76a14.08,14.08,0,0,0,.87-5.08,23.23,23.23,0,0,1,3-11.28h0c3.53-6.36,12.59-9.58,23.63-8.41,9.45,1,10.36,10.23,10.38,13.41l.11,0c1.42.57,5.74,2.32,5.08,8.9-.63,6.34-7.52,9.46-12.55,11.73-2.07.94-3.86,1.75-4.47,2.48-1.22,1.47-1.21,3.1-1.18,5.17a18.82,18.82,0,0,1-.35,4.56C135.57,285.33,129.64,289.8,121.56,289.8Zm-4-49.5a22.07,22.07,0,0,0-2.88,10.85,15.06,15.06,0,0,1-1,5.42c-.56,1.29-2.08,2.55-4,4.14-3.45,2.85-8.17,6.76-10.07,13.3a8.39,8.39,0,0,0,.8,7.26c2.49,3.75,8.72,6.24,18.5,7.38,8.93,1,15.59-3.24,17.4-11.18a17.75,17.75,0,0,0,.32-4.32c0-2.09,0-4.07,1.41-5.82.76-.91,2.55-1.72,4.82-2.75,4.81-2.18,11.39-5.15,12-10.92s-3.08-7.31-4.46-7.87c-.43-.17-.73-.3-.73-.68,0-2.8-.64-11.76-9.49-12.7-10.47-1.11-19.36,2-22.65,7.9Z"/><path class="cls-2" d="M150.18,245.6l-.16,0c-3.52-1.17-4.08-2.13-4.17-2.39a.5.5,0,0,1,.95-.32h0s.53.76,3.54,1.76a.5.5,0,0,1-.16,1Z"/><path class="cls-2" d="M109.54,266.21a.5.5,0,0,1-.24-.94c3.44-1.89,3.69-6,3.87-9,0-.76.09-1.48.18-2.07a.5.5,0,0,1,1,.16c-.08.54-.12,1.2-.17,2-.18,3-.46,7.66-4.38,9.81A.49.49,0,0,1,109.54,266.21Z"/><path class="cls-6" d="M47.3,252.41c-2.79,1.59-2.87,6-1.68,7.22s12.07,13.66,19.28,22.25c6.23,7.42,14,13.59,16.31,17.8,2.08,3.86,3.26,12.16,3.26,18.69,0,4.75-4.45,48.64-1.78,47.46s49.82,2.87,50.72-1.19c3-13.35,2.53-31.71,4.15-30.55,2.08,1.48,6.12,2.26,7.42,1.48a16.52,16.52,0,0,0,5.34-6.23c1.48-3,7.71-17.5,9.49-25.21s1.35-13.72-2.67-16.31c-5-3.26-19-6.23-22.25-7.42s-18.69-3.56-22.25-4.15-18.34-.21-20.76-2.08c-7.71-5.93-28.44-16.91-27-18.09,3.26-2.67,20.17-19.28,23.73-22.25,1.64-1.37-.51-10-4-8.9-6.33,2-16,9.1-23.73,15C54.55,244.88,49.38,251.23,47.3,252.41Z"/><path class="cls-2" d="M119.46,367c-5.39,0-12.33-.2-20.88-.52-7.29-.27-14.83-.55-15.68-.17a.71.71,0,0,1-.72-.07c-1.5-1.06-.83-13.21,1-36.76.43-5.47.77-9.79.77-11.09,0-6.21-1.1-14.54-3.2-18.45-1.23-2.28-4.19-5.21-7.62-8.61-2.75-2.72-5.86-5.8-8.63-9.1C57.1,273.36,46.37,261.08,45.27,260a4.71,4.71,0,0,1-.81-3.76A5.61,5.61,0,0,1,47.05,252h0a30.88,30.88,0,0,0,4.22-3.87,96.2,96.2,0,0,1,9.37-8.55c8.28-6.37,17.59-13.14,23.88-15.11,1.42-.44,2.78.37,3.83,2.29,1.34,2.47,1.88,6.4.6,7.47-1.75,1.46-6.88,6.36-11.84,11.1s-9.89,9.46-11.71,11c.83,1.15,7.05,4.93,12.1,8,5.56,3.37,11.3,6.86,14.7,9.47,1.47,1.13,8.67,1.39,13.92,1.58,2.89.1,5.39.19,6.62.4l2.23.36c5.61.9,17.27,2.78,20.1,3.81.92.33,2.7.81,5,1.42,5.47,1.47,13.73,3.68,17.39,6,3.91,2.53,4.88,8.2,2.89,16.85-1.82,7.89-8.18,22.61-9.53,25.32a16.85,16.85,0,0,1-5.53,6.43c-1.43.86-5.44.14-7.72-1.34-.39,1-.69,4.91-1,8.69-.46,6.1-1.1,14.46-2.64,21.4C133.54,366.36,128.86,367,119.46,367Zm-33.38-1.88c2.68,0,6.83.15,12.53.36,11,.41,33.83,1.26,34.31-.93,1.53-6.86,2.16-15.18,2.62-21.25.57-7.5.78-9.3,1.59-9.67a.71.71,0,0,1,.72.08c2,1.44,5.81,2.09,6.87,1.46a16.06,16.06,0,0,0,5.15-6c1.34-2.69,7.65-17.29,9.45-25.1,1.89-8.19,1.07-13.5-2.45-15.78s-11.7-4.47-17.1-5.92c-2.28-.61-4.08-1.1-5-1.44-2.74-1-14.35-2.87-19.92-3.77l-2.24-.36c-1.17-.2-3.64-.28-6.5-.39-7.23-.26-12.89-.56-14.49-1.79-3.35-2.58-9.33-6.21-14.61-9.41-9.12-5.53-12.57-7.73-12.65-8.87a.69.69,0,0,1,.25-.59c1.63-1.33,6.82-6.29,11.84-11.09s10.11-9.67,11.89-11.15c.66-.55.5-3.77-.83-6.22-.46-.84-1.42-2.2-2.65-1.82-6.18,1.93-15.85,9-23.57,14.95A95.32,95.32,0,0,0,52,248.81a30.07,30.07,0,0,1-4.44,4,4.62,4.62,0,0,0-2.1,3.51,3.88,3.88,0,0,0,.52,2.92c1.23,1.23,12.29,13.93,19.31,22.28,2.75,3.27,5.84,6.33,8.57,9,3.49,3.45,6.5,6.44,7.8,8.84C83.83,303.49,85,312,85,318.36c0,1.33-.34,5.67-.78,11.17-.86,10.92-2.64,33.41-1.5,35.76A17,17,0,0,1,86.08,365.09Zm-3.31.32h0Z"/><path class="cls-2" d="M94.86,282.38a.5.5,0,0,1-.5-.5c0-1.83-.36-5.21-2.8-7.34a.5.5,0,1,1,.66-.75c2.73,2.39,3.14,6.09,3.14,8.09A.5.5,0,0,1,94.86,282.38Z"/><path class="cls-2" d="M60.95,259a.5.5,0,0,1-.2-1,14.24,14.24,0,0,0,3.78-2.35.5.5,0,0,1,.73.68A14.94,14.94,0,0,1,61.14,259,.5.5,0,0,1,60.95,259Z"/><path class="cls-2" d="M83.09,295.23a.5.5,0,0,1-.46-.31c0-.07-2.78-6.84-7.36-10.47a.5.5,0,0,1,.62-.78c4.79,3.8,7.55,10.6,7.67,10.88a.5.5,0,0,1-.46.69Z"/><path class="cls-2" d="M82.3,302.74a.5.5,0,0,1-.49-.41c-.61-3.25-1.79-8-5-12a.5.5,0,1,1,.78-.63c3.39,4.18,4.62,9.13,5.24,12.48a.5.5,0,0,1-.4.58Z"/><path class="cls-1" d="M122,387.77c.56,3.08,2.58,15.72,1.63,16.76-3.26,3.56-2.82,10.23-1.33,10.83s3,3,3.71,4.3c1.32,2.38,4.75,7.56,7.27,5.93,2.09-1.35,11.12-21.8,8.31-24.62s-1.34-3-3.11-6.08c-1.19-2.08-3.41-6.82-3.56-9.94C134.79,382.68,121.7,386.13,122,387.77Z"/><path class="cls-2" d="M132.23,426.4a2.75,2.75,0,0,1-.67-.08c-2.62-.66-5.26-5.08-6-6.42-1.22-2.2-2.48-3.69-3.46-4.08-.7-.28-1.05-1.23-1.22-2-.5-2.19-.29-6.74,2.38-9.65.61-1-.82-11.18-1.75-16.33h0a1.21,1.21,0,0,1,.61-1.13c2-1.55,10.32-3.79,12.57-2.76a1.1,1.1,0,0,1,.71,1c.14,2.88,2.16,7.38,3.49,9.71A9.31,9.31,0,0,1,140,397.5c.21.9.36,1.55,1.91,3.11.6.6.8,1.72.62,3.43-.7,6.58-7.07,20.71-9,22A2.37,2.37,0,0,1,132.23,426.4Zm-9.73-38.67c.18,1,2.79,15.72,1.5,17.14-2.28,2.49-2.62,6.62-2.14,8.75.2.89.49,1.22.62,1.27,1.54.61,3,2.8,4,4.52,1.37,2.46,3.59,5.49,5.37,5.93a1.43,1.43,0,0,0,1.19-.18c1.54-1,7.88-14.83,8.56-21.22.19-1.8-.13-2.41-.33-2.62-1.76-1.76-2-2.61-2.18-3.59a8.3,8.3,0,0,0-1-2.59c-1.38-2.41-3.48-7.11-3.62-10.16,0,0-.18-.27-1.38-.27h0C129.35,384.71,123,386.83,122.5,387.73Z"/><path class="cls-4" d="M109.39,306.2c-5.48,1-9.69,7.91-10.48,14.43s-1.58,36.19-2.57,41.72c0,.28-8.9-1.19-13.84,2.57-4.41,3.35-12.66,10.68-12.66,15.82s5.14,17.8,6.92,18.59,9.89,1.58,10.68,2.37a55.1,55.1,0,0,0,14.63,8.9c11.27,4.55,16.41,7.71,19,6.72,1-.38.16-4.64,3.16-9.49,2.57-4.15,6.33-4.55,5.73-5.93-.35-.81-12.06-12.26-11.07-11.86,3,1.18,8.32,1.11,10.68.79,3-.4,8-1.78,7.91-4.15-.2-5.73-4-30.45-7.12-53.59-1.13-8.25-3.62-14.46-4.35-17.2C124.08,308.65,118.09,304.62,109.39,306.2Z"/><path class="cls-2" d="M120,418c-2,0-4.91-1.28-9.5-3.29-2.32-1-5.21-2.28-8.59-3.65a56.06,56.06,0,0,1-14.8-9c-.39-.32-3.29-.81-5.21-1.13a31.59,31.59,0,0,1-5.32-1.14c-2.23-1-7.22-14.16-7.22-19,0-6.14,10.71-14.59,12.85-16.22,4.06-3.08,10.63-2.78,13.1-2.66l.61,0c.51-3.42,1-13.25,1.42-22.76.38-8,.73-15.6,1.09-18.55.78-6.48,5.07-13.81,10.89-14.87h0c8.68-1.58,15.1,2.18,17.18,10.05.17.65.46,1.54.79,2.56a82.45,82.45,0,0,1,3.57,14.7c.94,6.88,1.93,13.89,2.87,20.51,2.21,15.6,4.11,29.07,4.25,33.13.1,2.79-5.2,4.25-8.34,4.67a31.26,31.26,0,0,1-9.39-.35c1.13,1.21,3,3.17,4.67,4.84,4,4.14,5.34,5.49,5.51,5.89.44,1-.5,1.64-1.59,2.36a12.65,12.65,0,0,0-4.18,4,17.87,17.87,0,0,0-2.43,7.28c-.2,1.35-.32,2.16-1,2.42A3.46,3.46,0,0,1,120,418ZM92.9,362.8c-3,0-7.25.36-10.1,2.53-5.75,4.37-12.46,11-12.46,15.42,0,5.3,5.28,17.53,6.62,18.13A32.93,32.93,0,0,0,82,399.94c3.63.61,5.26.93,5.75,1.41a54.82,54.82,0,0,0,14.47,8.79c3.4,1.37,6.29,2.64,8.62,3.66,5.23,2.29,8.39,3.68,10,3.06a6.19,6.19,0,0,0,.35-1.63,18.75,18.75,0,0,1,2.57-7.66,13.7,13.7,0,0,1,4.48-4.34c.9-.6,1.32-.9,1.22-1.13-.23-.4-3-3.28-5.3-5.58-6.12-6.26-6.11-6.27-5.78-6.76l.22-.34.43.15c2.75,1.1,7.85,1.1,10.43.76,3.14-.42,7.54-1.83,7.48-3.64-.14-4-2-17.45-4.25-33-.94-6.62-1.93-13.63-2.87-20.51a81.54,81.54,0,0,0-3.53-14.53c-.35-1.08-.62-1.93-.8-2.61-1.94-7.31-7.94-10.8-16-9.33h0c-5.36,1-9.33,7.89-10.07,14-.35,2.91-.71,10.47-1.08,18.48-.46,9.93-.94,20.19-1.49,23.27-.09.49-.43.48-1.58.42C94.67,362.84,93.86,362.8,92.9,362.8Z"/><path class="cls-2" d="M117.1,388.76a.5.5,0,0,1-.48-.37c-.68-2.48-8.11-28.67-9.87-33.17-1.7-4.34-6.76-24.5-6.56-32.82a.5.5,0,0,1,.5-.49h0a.5.5,0,0,1,.49.51c-.2,8.21,4.81,28.14,6.49,32.43,1.77,4.53,9.23,30.78,9.9,33.27a.5.5,0,0,1-.35.61Z"/><path class="cls-2" d="M118.88,390.54a.5.5,0,0,1-.29-.09,37.53,37.53,0,0,1-5.35-5.58c-3.57-4.18-8-9.38-11.8-9.75a.5.5,0,0,1-.45-.55.52.52,0,0,1,.55-.45c4.19.41,8.59,5.55,12.47,10.09a37.85,37.85,0,0,0,5.18,5.42.5.5,0,0,1-.29.91Z"/><path class="cls-2" d="M109.39,380.26a.5.5,0,0,1-.4-.2,42.32,42.32,0,0,1-4-6.81c-1.94-3.88-3.61-7.23-8.9-10.25a.5.5,0,0,1,.5-.87c5.55,3.17,7.29,6.65,9.3,10.68a41.54,41.54,0,0,0,3.91,6.66.5.5,0,0,1-.4.8Z"/><path class="cls-2" d="M110.78,381.25a.5.5,0,0,1,0-1,13.51,13.51,0,0,0,3.8-.57.5.5,0,1,1,.32.95A14.3,14.3,0,0,1,110.78,381.25Z"/><path class="cls-2" d="M106.43,336.16a.5.5,0,0,1-.43-.24c-1.84-3.07-4.43-12.42-4-17.7a.5.5,0,1,1,1,.08c-.39,5,2.15,14.21,3.89,17.11a.5.5,0,0,1-.17.69A.49.49,0,0,1,106.43,336.16Z"/><path class="cls-2" d="M87.44,402.21a.5.5,0,0,1-.38-.18c-1-1.15-4.28-4.27-4.31-4.31a.5.5,0,0,1,.69-.73c.14.13,3.39,3.2,4.39,4.39a.5.5,0,0,1-.38.82Z"/><path class="cls-2" d="M93.18,402.4a.5.5,0,0,1-.25-.07A22.68,22.68,0,0,1,82.63,391a.5.5,0,0,1,.92-.39,21.74,21.74,0,0,0,9.87,10.84.5.5,0,0,1-.25.93Z"/><path class="cls-2" d="M137.57,334.58a.49.49,0,0,1-.29-.09c-2.5-1.8-9.34-10.61-10.17-13.1a.5.5,0,0,1,.95-.32c.77,2.32,7.46,10.92,9.8,12.61a.5.5,0,0,1-.29.91Z"/><path class="cls-2" d="M142.81,322.32a.5.5,0,0,1-.44-.26c-2.88-5.28-10.19-10.71-15-14.31-1.07-.8-2-1.52-2.84-2.15-.41-.32-.76-.43-1-.33-.58.23-1.09,1.45-1.33,3.17a.51.51,0,0,1-.57.42.5.5,0,0,1-.42-.57c.22-1.53.74-3.47,2-4a2,2,0,0,1,2,.47c.8.62,1.76,1.34,2.82,2.13,4.9,3.65,12.32,9.16,15.3,14.63a.5.5,0,0,1-.2.68A.49.49,0,0,1,142.81,322.32Z"/><path class="cls-2" d="M146.56,323.31a.5.5,0,0,1-.49-.42c-.17-1-2.26-4.49-4.37-6.22a.5.5,0,1,1,.63-.77c2.25,1.84,4.5,5.51,4.72,6.83a.5.5,0,0,1-.41.58Z"/><path class="cls-2" d="M135.49,313.82a.5.5,0,0,1-.46-.7c.2-.45.43-1,.69-1.7,1.59-4,4.55-11.48,10.89-17.64a.5.5,0,0,1,.7.72c-6.18,6-9.09,13.35-10.65,17.29-.27.68-.5,1.27-.71,1.73A.5.5,0,0,1,135.49,313.82Z"/><path class="cls-2" d="M139.45,305.12a.49.49,0,0,1-.32-.11.5.5,0,0,1-.07-.7,20.55,20.55,0,0,1,9.35-6.49.49.49,0,0,1,.62.34.5.5,0,0,1-.34.62,19.48,19.48,0,0,0-8.85,6.16A.5.5,0,0,1,139.45,305.12Z"/><path class="cls-1" d="M127.35,308c-1.15-2.6-5-5-6.91-5.43-2.78-.65-6.84.42-8.37.93-1.16.39-5.33.8-5.35,1.44-.08,2.48,5.27.56,4.31,1.12s-2.48,3.11-3.11,4.47-.66,3.62-1.2,4.87c-.72,1.68-1.84,3.43-2.08,4.23-.35,1.15,1.44,1.6,2.24.88.43-.39-.9,1.79.48,2.16,1.2.32,2.16-1,2.24-.64.38,1.53,2.56-.08,2.72.16s1.3.3,2.4-.64c4.39-3.75,3.88-9.06,4.71-8.63a9.6,9.6,0,0,0,6.23.88C127.67,313.27,127.6,308.59,127.35,308Z"/><path class="cls-2" d="M107.76,323.25a2,2,0,0,1-.52-.07,1.31,1.31,0,0,1-.83-.62,1.86,1.86,0,0,1-.14-1.21,2.18,2.18,0,0,1-1.49-.27,1.32,1.32,0,0,1-.59-1.56,12.81,12.81,0,0,1,.91-1.91c.39-.74.84-1.57,1.18-2.38a10.38,10.38,0,0,0,.5-2.12,11.19,11.19,0,0,1,.71-2.76,20.92,20.92,0,0,1,2.23-3.65,4,4,0,0,1-2.95-.45,1.57,1.57,0,0,1-.52-1.29c0-.75,1.05-1,3.77-1.5a18.29,18.29,0,0,0,1.92-.4c.54-.18,5.33-1.73,8.64-.94,2.1.49,6.07,3,7.25,5.71h0a8.91,8.91,0,0,1-.49,5,2.49,2.49,0,0,1-1.53,1.46,10,10,0,0,1-6.3-.77c-.07.21-.14.51-.21.8A13.58,13.58,0,0,1,115,322a3.32,3.32,0,0,1-2.47.89,1.19,1.19,0,0,1-.4-.12l-.24.1a2.75,2.75,0,0,1-2.14.26,1.2,1.2,0,0,1-.44-.39A3,3,0,0,1,107.76,323.25Zm-.93-3.33.4.16c.35.22.24.59.15.87s-.26.87-.11,1.13a.31.31,0,0,0,.22.14,1.81,1.81,0,0,0,1.42-.44c.28-.19.53-.35.83-.23l.24.09.1.3c.05.2.13.24.15.25.27.14.95-.14,1.31-.29s.84-.34,1.12,0a2.3,2.3,0,0,0,1.72-.66,12.69,12.69,0,0,0,3.92-7.09c.23-1,.35-1.44.76-1.62a.66.66,0,0,1,.59,0,9.07,9.07,0,0,0,5.86.84,1.47,1.47,0,0,0,.85-.82,8.37,8.37,0,0,0,.53-4.31c-1.1-2.49-4.88-4.75-6.57-5.14-2.47-.58-6.25.3-8.1.92a18.36,18.36,0,0,1-2.06.44,16.94,16.94,0,0,0-2.95.69.51.51,0,0,0,.18.36c.59.51,2.34.2,3.1.07.58-.1,1-.17,1.12.26.06.16.09.45-.33.7-.78.45-2.22,2.78-2.92,4.25a10.6,10.6,0,0,0-.62,2.51,11,11,0,0,1-.57,2.35c-.36.85-.82,1.7-1.22,2.45a13.27,13.27,0,0,0-.84,1.73.34.34,0,0,0,.17.43,1.15,1.15,0,0,0,1.25-.07Zm5.9,2h0Z"/><path class="cls-2" d="M112.31,322.72l-.12,0a.5.5,0,0,1-.36-.61,11.86,11.86,0,0,1,1.63-3.68,8,8,0,0,0,.78-1.48c.13-.34.25-.79.38-1.29.49-1.78,1.15-4.21,2.82-5.48a.5.5,0,1,1,.61.8c-1.4,1.06-2,3.31-2.46,4.95-.15.54-.28,1-.41,1.37a8.89,8.89,0,0,1-.87,1.66,11,11,0,0,0-1.51,3.4A.5.5,0,0,1,112.31,322.72Z"/><path class="cls-2" d="M109.6,322.56a.5.5,0,0,1-.46-.7c.09-.2.26-.61.47-1.13.55-1.34,1.38-3.37,2-4.65a8.51,8.51,0,0,0,.56-1.93c.34-1.63.77-3.65,2.71-5.11a.5.5,0,1,1,.6.8c-1.63,1.24-2,3-2.33,4.52a9.13,9.13,0,0,1-.64,2.17c-.62,1.24-1.44,3.25-2,4.58-.22.53-.39.95-.48,1.15A.5.5,0,0,1,109.6,322.56Z"/><path class="cls-2" d="M107,321.36a.5.5,0,0,1-.46-.69l0-.12a27.87,27.87,0,0,1,2.56-5.17,6.52,6.52,0,0,0,.79-2.19,11,11,0,0,1,2.52-5.21.5.5,0,1,1,.75.66,10,10,0,0,0-2.3,4.79,7.32,7.32,0,0,1-.94,2.51,26.57,26.57,0,0,0-2.46,5l0,.12A.5.5,0,0,1,107,321.36Z"/><path class="cls-5" d="M136.55,403.39c-1.8,3.21-9.12,22.74-1.67,24.67,8.63,2.23,15.42-14.26,15.81-14.26,1,0,7.74-.28,7.84-1.54.26-3.21-4.59-6.15-4.37-6.81.77-2.31,8-19,0-20.56-9.77-1.89-19.66,11.69-19.66,13.49S136.93,402.72,136.55,403.39Z"/><path class="cls-2" d="M136.5,428.77a6.86,6.86,0,0,1-1.74-.22,4.33,4.33,0,0,1-3-2.67c-2.49-5.84,2.64-19.67,4.3-22.69a6.5,6.5,0,0,0-.72-1.4,7.49,7.49,0,0,1-1.37-3.41c0-1.32,3.39-6.13,7.56-9.57,3.08-2.54,7.77-5.36,12.7-4.41a4.53,4.53,0,0,1,3.25,2.29c2.53,4.53-1.11,14.23-2.49,17.89-.14.38-.26.68-.33.9a10.41,10.41,0,0,0,.92,1c1.44,1.39,3.62,3.49,3.43,5.87-.14,1.78-6.71,2-8.09,2-.12.2-.31.57-.5.93C148.59,418.72,143.26,428.77,136.5,428.77Zm15.77-43.56c-3.86,0-7.5,2.26-10,4.32-4.4,3.61-7.25,8.1-7.26,8.85a7,7,0,0,0,1.23,2.9c.65,1.08,1.07,1.8.76,2.36h0c-1.53,2.73-6.62,16.39-4.28,21.85a3.33,3.33,0,0,0,2.3,2.09c6.83,1.77,12.63-9.21,14.54-12.82.72-1.35.77-1.46,1.14-1.46,2.28,0,7-.48,7.35-1.13.14-1.86-1.83-3.76-3.14-5-.93-.9-1.39-1.34-1.22-1.86.08-.23.21-.59.39-1.07,1.2-3.2,4.86-12.92,2.55-17a3.52,3.52,0,0,0-2.56-1.79A9.41,9.41,0,0,0,152.26,385.21Zm-15.71,18.18h0Z"/><path class="cls-2" d="M136.56,403.89a.5.5,0,0,1-.45-.72c6.53-13.45,13.59-18.52,18-18.78a.5.5,0,1,1,.06,1c-4,.23-10.84,5.15-17.18,18.22A.5.5,0,0,1,136.56,403.89Z"/><path class="cls-2" d="M150.56,414.43a.5.5,0,0,1-.45-.72,67.64,67.64,0,0,0,3.56-8.39.5.5,0,0,1,1,.26,67,67,0,0,1-3.63,8.57A.5.5,0,0,1,150.56,414.43Z"/><path class="cls-2" d="M130.73,403.93a6.38,6.38,0,0,1-1.49-.18.5.5,0,0,1,.23-1,5.05,5.05,0,0,0,5.26-1.86.5.5,0,0,1,.82.57A6.27,6.27,0,0,1,130.73,403.93Z"/><path class="cls-1" d="M130.44,245c-1.43-.1-3.21,7.39-5.44,9-1.24.89-.94-3.87-3.4-3.28-2.77.66-1.05,3-1.52,4.22s-.94,2.34-.23,3.28,2.23.47,2,1.41a35.1,35.1,0,0,1-9.61,16.16c-1.23,1.17-3.61.23-3.51,1.05.23,2,4,9,13.24,10s13.12-5.86,12.18-6.21c-1.6-.6-5.15-1.41-5-1.87S131,272,131.32,272c1.29.23,6,.1,8.32-3.28,3.12-4.55,5.41-12.39,6.43-14.58.41-.88-.87-3.06-2.1-3.46s-6.53.69-9-.51C132.05,248.72,132.18,245.13,130.44,245Z"/><path class="cls-2" d="M123.66,287.38a17.39,17.39,0,0,1-1.76-.09c-9.59-1-13.45-8.38-13.68-10.4a.75.75,0,0,1,.18-.6c.29-.33.78-.34,1.39-.35a3.12,3.12,0,0,0,2.1-.52,34.56,34.56,0,0,0,9.46-15.92,1.62,1.62,0,0,0-.38-.12,2.56,2.56,0,0,1-1.53-.86c-.87-1.16-.32-2.54.17-3.76a2.74,2.74,0,0,0,0-1.15c-.17-1.12-.42-2.81,1.91-3.37,1.83-.44,2.49,1.38,2.89,2.46a5.75,5.75,0,0,0,.37.86c1-.8,2-3,2.84-5,1.2-2.74,1.9-4.14,2.89-4.1s1.59,1.08,2.13,2.13a6.14,6.14,0,0,0,2.65,3.11c1.38.68,3.85.54,5.83.43a10.3,10.3,0,0,1,3.05.06,4.4,4.4,0,0,1,2.24,2.35,2.31,2.31,0,0,1,.16,1.8c-.28.59-.65,1.62-1.13,2.93-1.22,3.34-3.06,8.4-5.35,11.73s-6.94,3.68-8.5,3.53c-.44,1-1.57,4.82-1.9,6a22,22,0,0,0,2.59.87c.78.23,1.52.45,2.07.66.14.05.6.29.42,1.08C134.27,283.16,130.49,287.38,123.66,287.38ZM109.24,277c.42,2.07,4.06,8.45,12.76,9.33,5.83.59,9.14-2,10.3-3.19a5.35,5.35,0,0,0,1.45-2.13c-.5-.18-1.16-.37-1.8-.56-2.63-.78-3.53-1.09-3.34-1.83,1.81-7.24,2.57-7.09,2.8-7,1.36.25,5.72,0,7.82-3.07,2.21-3.22,4-8.21,5.23-11.5.48-1.33.87-2.37,1.16-3a1.48,1.48,0,0,0-.17-1,3.41,3.41,0,0,0-1.63-1.79,11.08,11.08,0,0,0-2.69,0c-2.1.12-4.72.27-6.34-.53a7,7,0,0,1-3.09-3.56c-.48-1-.8-1.54-1.29-1.58-.44.14-1.33,2.16-1.91,3.5-1,2.22-2,4.51-3.21,5.4a.9.9,0,0,1-.82.17c-.53-.16-.75-.77-1-1.53-.53-1.43-.9-2-1.72-1.84-1.37.33-1.34,1-1.15,2.25a3.27,3.27,0,0,1,0,1.67c-.43,1.07-.83,2.08-.3,2.79a1.67,1.67,0,0,0,1,.49c.44.11,1.34.35,1.1,1.33a35.61,35.61,0,0,1-9.75,16.41,3.93,3.93,0,0,1-2.77.8C109.62,276.94,109.4,276.94,109.24,277ZM130.4,245.5h0Z"/><path class="cls-2" d="M122.19,257.3h-.11a.5.5,0,0,1-.38-.6,3.75,3.75,0,0,0-.18-2.22.5.5,0,1,1,.88-.48,4.71,4.71,0,0,1,.28,2.93A.5.5,0,0,1,122.19,257.3Z"/><path class="cls-2" d="M128.63,282.84h0a.5.5,0,0,1-.48-.52,21.38,21.38,0,0,1,.49-3.75.5.5,0,0,1,1,.29,20.91,20.91,0,0,0-.45,3.51A.5.5,0,0,1,128.63,282.84Z"/><path class="cls-2" d="M131.32,272.53l-.14,0c-5.5-1.57-6.7-7.77-7.15-10.11a.5.5,0,1,1,1-.19c.71,3.69,2.08,8.09,6.44,9.34a.5.5,0,0,1-.14,1Z"/><path class="cls-2" d="M149.44,256.2h0a4.07,4.07,0,0,1-3.75-2.57.5.5,0,0,1,.94-.34,3.1,3.1,0,0,0,2.88,1.91.5.5,0,0,1,0,1Z"/><path class="cls-2" d="M134.54,267a3.81,3.81,0,0,1-.62-.05,4.35,4.35,0,0,1-3.19-2.46,3.91,3.91,0,0,1-.54-2.23h0c.25-.51.7-.33,2,.22a14.68,14.68,0,0,0,2.53.89c.58.1,1.16.16,1.67.21,1.24.13,1.86.19,1.86.8a3.12,3.12,0,0,1-1.13,1.62A4,4,0,0,1,134.54,267Zm-3.27-3.83a3.76,3.76,0,0,0,2.81,2.79,3.15,3.15,0,0,0,3-1.31l-.74-.08c-.52-.05-1.13-.11-1.73-.21a15.17,15.17,0,0,1-2.75-.95Zm-.63-.69h0Z"/><path class="cls-2" d="M137.2,262.25a9.89,9.89,0,0,1-4.18-1.19.5.5,0,0,1,.54-.84,9,9,0,0,0,3.79,1c0-.49-.05-1.62-.11-2.48-.08-1.33-.17-2.7-.12-3.46a.49.49,0,0,1,.53-.47.5.5,0,0,1,.47.53c0,.7,0,2.1.12,3.34.18,2.9.16,3.15-.21,3.37A1.67,1.67,0,0,1,137.2,262.25Z"/><ellipse class="cls-2" cx="130.54" cy="255.6" rx="1.42" ry="0.69" transform="translate(-135.53 363.22) rotate(-84.97)"/><path class="cls-2" d="M130.45,257.51h-.08c-.68-.06-1.11-.91-1-2a2.85,2.85,0,0,1,.36-1.19,1.08,1.08,0,0,1,1-.61c.68.06,1.11.91,1,2h0C131.63,256.77,131.1,257.51,130.45,257.51Zm.17-2.76a1.71,1.71,0,0,0-.26.83,1.73,1.73,0,0,0,.11.86,2,2,0,0,0,.15-1.69Zm.61.91h0Z"/><ellipse class="cls-2" cx="142.45" cy="258.26" rx="1.28" ry="0.55" transform="translate(-137.98 349.63) rotate(-79.17)"/><path class="cls-2" d="M142.25,260h-.13c-.61-.12-.9-.92-.7-1.95a2.87,2.87,0,0,1,.41-1,.87.87,0,0,1,1.67.32,3.1,3.1,0,0,1-.42,2.17A1,1,0,0,1,142.25,260Zm.18-.93h0Zm.12-1.33a2.31,2.31,0,0,0-.19,1,2.34,2.34,0,0,0,.19-1Z"/><path class="cls-2" d="M134,255.68a.5.5,0,0,1-.43-.25c-1.26-2.14-4.3-1.82-5.66-1.17a.5.5,0,0,1-.43-.9c1.9-.91,5.42-1,7,1.57a.5.5,0,0,1-.43.75Z"/><path class="cls-2" d="M144.8,257.87a.5.5,0,0,1-.46-.3c-.08-.19-.9-1.86-3.22-1a.5.5,0,1,1-.35-.94,3.31,3.31,0,0,1,4.49,1.53.5.5,0,0,1-.46.7Z"/><path class="cls-5" d="M389.44,232.9l-8.53.21-141-105.33a6.53,6.53,0,0,0-8.13.25L99.64,240.11l-11.19.27a2.64,2.64,0,0,1-1.79-4.64L231.8,110.46a6,6,0,0,1,7.68-.19L390.84,228.63A2.39,2.39,0,0,1,389.44,232.9Z"/><path class="cls-2" d="M88.37,240.89a3.14,3.14,0,0,1-2-5.52L231.47,110.08a6.56,6.56,0,0,1,8.31-.21L391.14,228.24a2.89,2.89,0,0,1-1.69,5.17h0l-8.7.22-.14-.1-141-105.33a6,6,0,0,0-7.5.23L99.83,240.61l-11.36.28Zm147.38-131.4a5.54,5.54,0,0,0-3.63,1.35L87,236.13a2.11,2.11,0,0,0-.6,2.4,2.06,2.06,0,0,0,2,1.36l11-.27,132-112a7,7,0,0,1,8.75-.27L381.07,232.61l8.36-.21a1.89,1.89,0,0,0,1.1-3.38L239.16,110.67A5.54,5.54,0,0,0,235.75,109.49ZM389.44,232.9h0Z"/><path class="cls-3" d="M380.91,233.11l-281.27,7L231.78,128a6.53,6.53,0,0,1,8.13-.25Z"/><path class="cls-2" d="M98.23,240.65l1.08-.92L231.46,127.65a7,7,0,0,1,8.75-.27l142.15,106.2ZM236,127a6,6,0,0,0-3.89,1.43L101,239.58l278.41-6.93L239.61,128.18A6.05,6.05,0,0,0,236,127Z"/><path class="cls-2" d="M237.82,237a.5.5,0,0,1-.5-.49L235,126.65a.5.5,0,0,1,.49-.51h0a.5.5,0,0,1,.5.49l2.27,109.85a.5.5,0,0,1-.49.51Z"/><path class="cls-2" d="M187.77,238.27a.5.5,0,0,1-.5-.49l-1.56-70.68a.5.5,0,0,1,.49-.51.51.51,0,0,1,.51.49l1.56,70.68a.5.5,0,0,1-.49.51Z"/><path class="cls-2" d="M144.09,239.07a.5.5,0,0,1-.5-.5l-.06-36.09a.5.5,0,0,1,.5-.5h0a.5.5,0,0,1,.5.5l.06,36.09a.5.5,0,0,1-.5.5Z"/><path class="cls-2" d="M292.88,235.7a.5.5,0,0,1-.5-.49l-1.08-68.37a.5.5,0,0,1,.49-.51.53.53,0,0,1,.51.49l1.08,68.37a.5.5,0,0,1-.49.51Z"/><path class="cls-2" d="M335.51,234.23a.5.5,0,0,1-.5-.49l-.37-34.55a.5.5,0,0,1,.5-.51h0a.5.5,0,0,1,.5.49l.37,34.55a.5.5,0,0,1-.5.51Z"/><path class="cls-6" d="M361.43,57c14.34-7.85,27.95,4,32.09,2.39,4.44-1.71,6.14-16,22.87-18.09s22.25,12.85,24.92,14.34c3.07,1.71,18.86-3.84,22.87,8.19,4.44,13.31-10.58,15.7-13.65,18.09-2.17,1.69-2.88,15.43-9.9,18.43-11.95,5.12-21.51-.34-24.58,1-4.61,2-2.39,14-16,16.73-13.89,2.78-19.12-7.17-24.24-5.12-4.31,1.72-8.19,13.31-18.78,15.36s-17.25-5.81-22.87-5.46c-5.46.34-10.92,5.46-14.34,13-.85,1.86-3.07-8.88,1.37-17.07,1.18-2.19-9.69-18.6,2-28,10.24-8.19,18.78-4.1,22.87-7.17C348.59,81.76,347.37,64.72,361.43,57Z"/><path class="cls-2" d="M319.57,136.59a.78.78,0,0,1-.66-.42c-1-1.57-2-10.56,1.81-17.6.21-.39-.42-2.26-1-3.92-2-6-5.76-17.09,3.16-24.23,6.48-5.19,12.41-5.55,16.73-5.81,2.64-.16,4.72-.29,6.16-1.36.59-.44,1-2.38,1.53-4.62,1.4-6.16,3.73-16.48,13.89-22,9.83-5.39,19.37-1.69,25.68.76,2.84,1.1,5.29,2.05,6.47,1.6s2.35-2.24,3.74-4.47c3-4.87,7.62-12.23,19.25-13.65,13.21-1.62,19.59,7.11,23,11.8a11.71,11.71,0,0,0,2.21,2.6c.74.41,2.61.32,4.78.21,6.1-.3,15.32-.76,18.33,8.26,3.65,11-5.34,14.8-10.71,17.1a17,17,0,0,0-3.11,1.54c-.62.48-1.22,2.59-1.86,4.83-1.4,4.9-3.32,11.6-8.14,13.67-8,3.44-15,2.18-19.66,1.35-2.24-.4-4-.73-4.92-.32-1.45.64-2.17,2.47-3.08,4.79-1.69,4.29-4,10.16-13.07,12-8.42,1.68-13.79-1.25-17.71-3.39-2.66-1.45-4.58-2.5-6.44-1.76-1.45.58-2.95,2.5-4.69,4.73-3.24,4.15-7.28,9.32-14.18,10.66-6.56,1.27-11.71-1.2-15.85-3.19-2.68-1.29-5-2.4-7.09-2.27-5.17.32-10.5,5.18-13.91,12.68a.75.75,0,0,1-.63.5Zm.21-.93h0Zm41.9-78.2c-9.76,5.35-12,15.39-13.39,21.39-.62,2.74-1,4.54-1.91,5.2-1.67,1.25-4,1.4-6.69,1.56-4.42.27-9.93.61-16.17,5.6-8.37,6.69-4.9,17-2.83,23.13.9,2.67,1.31,4,.91,4.71-3.39,6.26-2.76,14.12-2,16.16,3.59-7.59,9.12-12.46,14.55-12.8,2.35-.15,4.78,1,7.58,2.36,4.21,2,9,4.31,15.23,3.11,6.54-1.27,10.44-6.27,13.58-10.29,1.83-2.34,3.4-4.36,5.1-5,2.29-.92,4.5.28,7.29,1.81,4,2.18,9,4.9,17,3.29,8.54-1.71,10.65-7.06,12.34-11.36,1-2.43,1.78-4.53,3.6-5.34,1.18-.52,3-.2,5.5.25,4.51.81,11.33,2,19.08-1.28,4.39-1.88,6.23-8.32,7.58-13,.78-2.71,1.34-4.66,2.21-5.35a16.89,16.89,0,0,1,3.33-1.67c5.38-2.3,13.51-5.79,10.15-15.87-2.77-8.3-11.53-7.87-17.33-7.58-2.51.12-4.33.21-5.31-.33a11.06,11.06,0,0,1-2.53-2.88c-3.31-4.52-9.46-12.93-22.09-11.39C405.29,43.18,401,50,397.93,55c-1.49,2.38-2.66,4.27-4.23,4.87s-3.91-.33-7.19-1.6c-6.14-2.38-15.41-6-24.84-.82Z"/><path class="cls-1" d="M85.1,226.42c.57-.33,3.79-2.2,4.53-2.69s3.55-4.53,5-5.38,6.24-1,8.93-2.08,4.71-2.39,5.14-2,1,.73.49,1.47c-.37.55-18.23,16.15-19.7,17.26-1,.75-3.67,0-4.65-1.84S84.24,226.91,85.1,226.42Z"/><path class="cls-2" d="M88.44,233.82a4,4,0,0,1-.87-.1,4.84,4.84,0,0,1-3.16-2.29c-1.09-2-.68-4.8.44-5.44h0c.58-.33,3.78-2.2,4.5-2.67a16.53,16.53,0,0,0,1.54-1.74,18.85,18.85,0,0,1,3.51-3.66,14.2,14.2,0,0,1,4.08-1,24.67,24.67,0,0,0,4.91-1.12c.91-.37,1.74-.77,2.47-1.11,1.78-.84,2.68-1.27,3.21-.74l.15.14a1.38,1.38,0,0,1,.4,2c-.49.73-18.63,16.49-19.82,17.38A2.25,2.25,0,0,1,88.44,233.82Zm20-19.1a10.53,10.53,0,0,0-2.13.87c-.74.35-1.59.75-2.52,1.14a25.29,25.29,0,0,1-5.13,1.18,14.45,14.45,0,0,0-3.74.87,19.56,19.56,0,0,0-3.24,3.43,12.66,12.66,0,0,1-1.75,1.94c-.77.52-4.08,2.44-4.56,2.71h0c-.55.31-.93,2.46-.05,4.1a3.87,3.87,0,0,0,2.5,1.78,1.89,1.89,0,0,0,1.41-.11c1.57-1.18,19-16.41,19.6-17.16.14-.22.14-.27-.26-.64ZM85.1,226.42h0Z"/><path class="cls-2" d="M95,221.78a.5.5,0,0,1-.33-.87,10.58,10.58,0,0,1,5.43-2.33,10.16,10.16,0,0,0,2.4-.68c1.92-1,6.17-3.5,6.21-3.53a.5.5,0,1,1,.51.86c-.17.11-4.32,2.59-6.27,3.57a10.84,10.84,0,0,1-2.64.77,9.78,9.78,0,0,0-5,2.09A.49.49,0,0,1,95,221.78Z"/><path class="cls-2" d="M96.6,227.17l-.13,0a.5.5,0,0,1-.35-.61c1-3.62,2.88-4.51,6-6,.59-.28,1.24-.58,1.94-.93a.5.5,0,1,1,.45.89c-.71.35-1.36.66-2,.94-3.08,1.45-4.62,2.18-5.49,5.35A.5.5,0,0,1,96.6,227.17Z"/><path class="cls-3" d="M48.17,382.26c-.83-7.44-10.37-3.34-15.29-4.55-9.3-2.27-6.63-12.75-12.19-14.05-6.2-1.45-8,6.23-12.81,4.75-4.51-1.38-4.3-14.53,5-17.36C23,348,31,355.6,31.22,354.78s0-4.87-2.27-6.82c-3.1-2.69-12.4-7.65-12.4-15.91,0-8.68,6.61-15.5,6.2-20.67-.28-3.56-10.75-5-9.09-11.57,1.51-6,13.39-6.63,21.49-4.13s12.9,9.59,15.5,12.19c2.89,2.89,7.7,4.42,7.65,4.13a29.32,29.32,0,0,0-3.1-8.89c-1.56-2.83-1.4-8.33,1.86-10.13,4.13-2.27,10.75,0,14.05,5.58,2.36,4,3.93,11,6.61,12.4s5.79,3.1,8.47,7.44c1.75,2.83,1.45,6.82,2.07,6.41,1.1-.73,5.58-1.45,7.44,1,5.72,7.63-8.27,16.74-9.09,21.49s3.72,10.75,1.45,15.5-8.06,8.47-8.47,16.74c-.33,6.69-10.54,14.88-16.33,13.85S48.17,382.26,48.17,382.26Z"/><path class="cls-2" d="M64.31,394a6.54,6.54,0,0,1-1.14-.1c-5.88-1.05-15-10.89-15.37-11.31l-.11-.12,0-.16c-.51-4.63-4.73-4.33-9.19-4a19.72,19.72,0,0,1-5.72-.1c-5.5-1.34-7-5.51-8.28-8.86-.93-2.51-1.74-4.69-3.91-5.19-3-.7-4.9.92-6.74,2.5s-3.55,3-6.11,2.25c-2-.6-3.22-3.13-3.22-6.44,0-4.66,2.53-10.14,8.18-11.87,7.85-2.41,14.48,1.47,17.31,3.13l.79.45c0-1.29-.4-4.3-2.16-5.83-.55-.48-1.32-1-2.2-1.69C22.29,343.62,16,339,16,332c0-4.84,2-9.06,3.73-12.78,1.42-3,2.65-5.63,2.47-7.84-.09-1.17-1.78-2.21-3.56-3.32-2.94-1.82-6.6-4.09-5.52-8.42a6.33,6.33,0,0,1,3.28-4c4.76-2.69,13.09-2.3,18.85-.53,6.66,2,11.07,7.09,14,10.43.66.75,1.23,1.4,1.71,1.89a18.19,18.19,0,0,0,6.67,3.89,28.23,28.23,0,0,0-2.91-8,9.93,9.93,0,0,1-.94-5.76,6.41,6.41,0,0,1,3-5c4.54-2.5,11.42.19,14.72,5.76A41.38,41.38,0,0,1,74,303.64c1.21,3,2.45,6.06,4,6.88,2.8,1.51,5.92,3.19,8.66,7.62a14,14,0,0,1,1.62,5.19c0,.3.1.62.15.85,1.63-.69,5.82-1.16,7.71,1.36,4,5.36-1,11.26-5,16-1.92,2.26-3.73,4.39-4,5.87-.34,2,.29,4.17,1,6.51.89,3.08,1.8,6.27.44,9.12a26.47,26.47,0,0,1-3.1,4.61c-2.37,3.06-5.06,6.53-5.33,11.94-.17,3.32-2.73,7.35-6.7,10.5C70.23,392.61,66.94,394,64.31,394ZM48.64,382c1.05,1.12,9.47,10,14.7,10.89,2.46.44,6.07-.95,9.42-3.61,3.75-3,6.17-6.72,6.32-9.77.29-5.72,3.07-9.32,5.54-12.5a25.78,25.78,0,0,0,3-4.43c1.2-2.5.33-5.51-.5-8.41-.67-2.34-1.37-4.77-1-7,.3-1.75,2.11-3.88,4.21-6.35,4-4.7,8.52-10,5-14.76-1.62-2.16-5.75-1.59-6.76-.92a.62.62,0,0,1-.6.06c-.42-.18-.5-.69-.68-1.8a13.17,13.17,0,0,0-1.48-4.82,19.08,19.08,0,0,0-8.24-7.24c-1.88-1-3.14-4.12-4.47-7.41a41,41,0,0,0-2.38-5.2c-3-5.13-9.29-7.65-13.38-5.4-1.81,1-2.33,3.12-2.48,4.3a8.88,8.88,0,0,0,.82,5.15,29.48,29.48,0,0,1,3.11,8.8l.12.59-.34.2c-.74.39-5.66-1.68-8.22-4.25-.51-.51-1.09-1.17-1.76-1.94C45.69,303,41.39,298.11,35,296.15c-5.42-1.67-13.59-2.08-18.06.44a5.37,5.37,0,0,0-2.8,3.33c-.9,3.62,2.14,5.5,5.08,7.33,2.09,1.29,3.89,2.41,4,4.09.2,2.48-1.08,5.2-2.56,8.35C19,323.31,17,327.42,17,332c0,6.5,6,10.89,10,13.8.9.66,1.68,1.23,2.26,1.74,2.41,2.09,2.68,6.32,2.43,7.32l-.06.24-.27.15c-.38.16-.76-.06-1.88-.72-2.72-1.59-9.08-5.32-16.52-3-5.16,1.58-7.47,6.62-7.47,10.92,0,2.82,1,5,2.51,5.49,2,.62,3.48-.62,5.16-2,1.93-1.65,4.13-3.53,7.62-2.71,2.69.63,3.63,3.15,4.62,5.82,1.22,3.29,2.6,7,7.58,8.23a19.08,19.08,0,0,0,5.41.08C42.87,377,47.94,376.62,48.64,382Z"/><path class="cls-2" d="M50.23,383.59a.5.5,0,0,1-.5-.46c-.53-6.06-6.46-9-11.24-11.34-2.53-1.25-4.71-2.32-5.81-3.68-2.88-3.54-2.57-9-2-13.4a.5.5,0,1,1,1,.13c-.57,4.18-.89,9.39,1.75,12.64,1,1.18,3.05,2.22,5.47,3.41,5,2.47,11.21,5.54,11.79,12.15a.5.5,0,0,1-.46.54Z"/><path class="cls-2" d="M14.19,366.28a.5.5,0,0,1-.33-.87c1-.92,1.88-1.82,2.62-2.62,2-2.12,3.54-3.8,6.86-4a.49.49,0,0,1,.52.48.5.5,0,0,1-.48.52c-2.91.14-4.28,1.61-6.18,3.64-.76.82-1.62,1.74-2.69,2.69A.5.5,0,0,1,14.19,366.28Z"/><path class="cls-2" d="M26.79,318.71h0a.5.5,0,0,1-.46-.54c0-.23.35-5.63-4.46-8a.5.5,0,1,1,.44-.9c5.43,2.64,5,8.88,5,8.94A.5.5,0,0,1,26.79,318.71Z"/><path class="cls-2" d="M56.3,385.45h-.11a.5.5,0,0,1-.37-.6c.5-2.17-.1-4.87-.74-7.72a39.25,39.25,0,0,1-1-6.22c-.13-2.28.73-4.64,1.65-7.15,1.18-3.22,2.52-6.88,2.06-11.22-.61-5.81-4.27-9.39-8.14-13.18a53.77,53.77,0,0,1-4.51-4.8c-2-2.46-2.5-6.51-3.07-10.8-.66-4.9-1.4-10.45-4.36-14.58-5.61-7.82-18.42-11-23.82-8.89a.5.5,0,1,1-.36-.93c2.95-1.14,7.76-.85,12.57.75,5.36,1.79,9.77,4.8,12.42,8.49,3.11,4.33,3.87,10,4.54,15,.56,4.15,1.08,8.07,2.86,10.31a52.8,52.8,0,0,0,4.43,4.71c3.83,3.75,7.78,7.62,8.43,13.79.48,4.57-.9,8.34-2.12,11.67-.92,2.5-1.71,4.67-1.59,6.74a38.63,38.63,0,0,0,1,6.06c.67,3,1.29,5.77.74,8.17A.5.5,0,0,1,56.3,385.45Z"/><path class="cls-2" d="M59.86,384.11a.5.5,0,0,1-.24-.94c3.69-2,4.59-8.75,5-12,.08-.61.15-1.11.22-1.47a6.27,6.27,0,0,1,1.7-2.83,9.7,9.7,0,0,0,2.74-5.46c.36-2.62-1.22-4.91-2.89-7.34s-3.27-4.74-3.63-7.81c-.4-3.34,1.56-6.53,3.64-9.91,1.93-3.14,3.93-6.38,4.07-9.89.28-7-7.09-13-12.28-14a.5.5,0,1,1,.19-1c5.54,1.08,13.39,7.47,13.09,15-.15,3.77-2.22,7.13-4.22,10.38s-3.86,6.27-3.5,9.26c.34,2.82,1.93,5.13,3.47,7.36,1.79,2.59,3.48,5,3.06,8a10.68,10.68,0,0,1-3,6,5.42,5.42,0,0,0-1.48,2.35c-.06.35-.13.83-.21,1.42-.49,3.65-1.39,10.45-5.53,12.72A.49.49,0,0,1,59.86,384.11Z"/><path class="cls-2" d="M69.94,384.56a.5.5,0,0,1-.49-.39c-1.41-6.35-1-14.28,1.07-18.85A28.79,28.79,0,0,1,76,357.18a18.62,18.62,0,0,0,3-4c1.22-2.44,1-6.29.75-10a33.28,33.28,0,0,1,.1-7.95c.94-4.68,3.61-8.21,8.18-10.79a.5.5,0,0,1,.49.87c-4.36,2.46-6.8,5.68-7.69,10.12a32.12,32.12,0,0,0-.08,7.69c.24,3.86.49,7.85-.85,10.53a19.69,19.69,0,0,1-3.15,4.26,27.94,27.94,0,0,0-5.3,7.88c-1.68,3.77-2.56,11.24-1,18.23a.5.5,0,0,1-.38.6Z"/><path class="cls-2" d="M73.21,383.08a.5.5,0,0,1-.49-.38c-2-7.81,1.42-16.73,5.75-21.52,3.61-4,4-8.7,4.5-15.24.08-1,.16-2.06.26-3.16.67-7.38,2.41-15.38,10.23-18.8a.5.5,0,1,1,.4.92c-7.35,3.21-9,10.89-9.64,18C84.13,344,84.05,345,84,346c-.51,6.48-.92,11.59-4.76,15.83-4.16,4.59-7.39,13.14-5.52,20.6a.5.5,0,0,1-.36.61Z"/><path class="cls-2" d="M77.51,373.88a.5.5,0,0,1-.47-.68c.7-1.79,2.63-3.13,4.86-4.68a37.69,37.69,0,0,0,4-3.07.5.5,0,0,1,.67.74,39,39,0,0,1-4.12,3.15c-2.1,1.46-3.91,2.72-4.5,4.22A.5.5,0,0,1,77.51,373.88Z"/><path class="cls-2" d="M74.39,360.09l-.13,0a.5.5,0,0,1-.36-.61c1.24-4.75,0-8.78-1-12a17.18,17.18,0,0,1-1-4.61,53.25,53.25,0,0,1,1-7.65,59.88,59.88,0,0,0,1.18-9c0-8.44-2.09-12.22-3.33-14.47-.18-.32-.34-.61-.47-.88a21.9,21.9,0,0,1-.87-2.17c-1.42-3.9-3.79-10.42-13.27-14.5a.5.5,0,1,1,.39-.92c9.88,4.25,12.34,11,13.81,15.07a21,21,0,0,0,.82,2.07c.13.25.28.53.45.84,1.21,2.19,3.46,6.26,3.46,15a60.46,60.46,0,0,1-1.2,9.13,52.78,52.78,0,0,0-1,7.48,16.55,16.55,0,0,0,.94,4.32c1,3.36,2.27,7.54,1,12.57A.5.5,0,0,1,74.39,360.09Z"/><path class="cls-2" d="M65.2,383.52a.5.5,0,0,1-.26-.07.5.5,0,0,1-.17-.69c0-.05,3.23-5.3,3.8-7.43a.5.5,0,1,1,1,.26c-.6,2.27-3.78,7.47-3.91,7.7A.5.5,0,0,1,65.2,383.52Z"/><path class="cls-5" d="M46.51,379.58c-1.86-.41,7.33,34.65,8.06,35.75,1.24,1.86,17.36,1.45,18.6,0,1.08-1.27,8.68-34.1,7.23-36.17-.76-1.08-8.89,2.7-17.77,2.89A45.64,45.64,0,0,1,46.51,379.58Z"/><path class="cls-2" d="M63,417.06c-1.22,0-2.35,0-3.26-.08-4.82-.29-5.34-1.08-5.54-1.37-.45-.68-3-10.11-4.87-17.77-4.22-17.18-3.57-18.12-3.33-18.48a.64.64,0,0,1,.66-.27h0c.24.05.6.17,1.08.32a43.1,43.1,0,0,0,14.92,2.15,56.09,56.09,0,0,0,13-2.22c3.21-.84,4.67-1.22,5.2-.46,1.6,2.28-5.95,35.25-7.26,36.78C72.67,416.69,67.26,417.06,63,417.06ZM46.76,380.16c-.19,3.6,7.27,33.15,8.24,34.9,0,0,.43.58,4,.87,5.58.44,13.1-.18,13.79-.93,1.08-1.55,8.35-33.52,7.2-35.56a19.14,19.14,0,0,0-4.12.86,57,57,0,0,1-13.22,2.25,44.07,44.07,0,0,1-15.25-2.2Z"/></g></svg>